<svg width="18" height="18" viewBox="0 0 18 18" fill="none" xmlns="http://www.w3.org/2000/svg">
<g clip-path="url(#clip0_204_10022)">
<path d="M2.0625 2.4375L4.5 4.125H7.5M2.625 2.4375C2.625 2.74816 2.37316 3 2.0625 3C1.75184 3 1.5 2.74816 1.5 2.4375C1.5 2.12684 1.75184 1.875 2.0625 1.875C2.37316 1.875 2.625 2.12684 2.625 2.4375Z" stroke="#00D995" stroke-width="1.5" stroke-linecap="round" stroke-linejoin="round"/>
<path d="M2.0625 6.5625H7.5M2.625 6.5625C2.625 6.87316 2.37316 7.125 2.0625 7.125C1.75184 7.125 1.5 6.87316 1.5 6.5625C1.5 6.25184 1.75184 6 2.0625 6C2.37316 6 2.625 6.25184 2.625 6.5625Z" stroke="#00D995" stroke-width="1.5" stroke-linecap="round" stroke-linejoin="round"/>
<path d="M12 16.5V13.875L14.1569 14.1446C14.6046 14.2006 15 13.8515 15 13.4004V10.875L16.5 9.75L15 7.5C15 4.18629 12.3136 1.5 9 1.5C7.49995 1.5 6.37495 1.875 6.37495 1.875M7.12497 13.2012C5.44636 12.6495 4.03357 11.377 3.37495 9.75M5.24998 12.2015V16.5" stroke="#00D995" stroke-width="1.5" stroke-linecap="round" stroke-linejoin="round"/>
</g>
<defs>
<clipPath id="clip0_204_10022">
<rect width="18" height="18" fill="white"/>
</clipPath>
</defs>
</svg>
