<svg width="18" height="18" viewBox="0 0 18 18" fill="none" xmlns="http://www.w3.org/2000/svg">
<g id="Frame" clip-path="url(#clip0_16142_12179)">
<path id="Vector" d="M8.6538 5.44005C8.81505 5.18665 9.18495 5.18665 9.3462 5.44005L9.81278 6.17312C10.3287 6.98378 11.0162 7.6713 11.8269 8.18723L12.56 8.6538C12.8134 8.81505 12.8134 9.18495 12.56 9.3462L11.8269 9.81278C11.0162 10.3287 10.3287 11.0162 9.81278 11.8269L9.3462 12.56C9.18495 12.8134 8.81505 12.8134 8.6538 12.56L8.18723 11.8269C7.6713 11.0162 6.98378 10.3287 6.17312 9.81278L5.44005 9.3462C5.18665 9.18495 5.18665 8.81505 5.44005 8.6538L6.17312 8.18723C6.98378 7.6713 7.6713 6.98378 8.18723 6.17312L8.6538 5.44005Z" stroke="#00D995" stroke-width="1.5" stroke-linejoin="round"/>
<path id="Vector_2" d="M9 16.5C13.1421 16.5 16.5 13.1421 16.5 9C16.5 4.85786 13.1421 1.5 9 1.5C4.85786 1.5 1.5 4.85786 1.5 9C1.5 13.1421 4.85786 16.5 9 16.5Z" stroke="#00D995" stroke-width="1.5" stroke-linejoin="round"/>
</g>
<defs>
<clipPath id="clip0_16142_12179">
<rect width="18" height="18" fill="white"/>
</clipPath>
</defs>
</svg>
