<svg width="14" height="14" viewBox="0 0 14 14" fill="none" xmlns="http://www.w3.org/2000/svg">
<g id="Frame" clip-path="url(#clip0_16154_13309)">
<path id="Vector" d="M11.6667 5.25002C11.2029 2.92517 9.04921 1.16669 6.46301 1.16669C3.53828 1.16669 1.16675 3.41556 1.16675 6.18919C1.16675 7.52187 1.71403 8.73275 2.60674 9.63132C2.80328 9.82919 2.93451 10.0995 2.88155 10.3777C2.79414 10.8326 2.59607 11.2569 2.30603 11.6105C3.06913 11.7512 3.86261 11.6245 4.54309 11.2658C4.78364 11.139 4.90391 11.0756 4.98879 11.0627C5.0482 11.0537 5.12559 11.0621 5.25008 11.0835" stroke="#00D995" stroke-width="1.5" stroke-linecap="round" stroke-linejoin="round"/>
<path id="Vector_2" d="M6.41675 9.48601C6.41675 11.181 7.85338 12.5553 9.62508 12.5553C9.83339 12.5556 10.0411 12.5363 10.2457 12.4979C10.393 12.4702 10.4667 12.4564 10.5181 12.4643C10.5695 12.4721 10.6424 12.5109 10.7881 12.5884C11.2003 12.8076 11.681 12.885 12.1433 12.799C11.9676 12.5829 11.8476 12.3236 11.7946 12.0456C11.7625 11.8756 11.842 11.7104 11.9611 11.5895C12.5019 11.0404 12.8334 10.3004 12.8334 9.48601C12.8334 7.79102 11.3968 6.41669 9.62508 6.41669C7.85338 6.41669 6.41675 7.79102 6.41675 9.48601Z" stroke="#00D995" stroke-width="1.5" stroke-linejoin="round"/>
</g>
<defs>
<clipPath id="clip0_16154_13309">
<rect width="14" height="14" fill="white"/>
</clipPath>
</defs>
</svg>
