<svg width="40" height="40" viewBox="0 0 40 40" fill="none" xmlns="http://www.w3.org/2000/svg">
<g id="Frame">
<path id="Vector" d="M4.16669 20C4.16669 12.9505 4.16669 9.42567 6.1633 7.08794C6.44682 6.75597 6.75599 6.4468 7.08795 6.16329C9.42569 4.16667 12.9505 4.16667 20 4.16667C27.0495 4.16667 30.5743 4.16667 32.912 6.16329C33.244 6.4468 33.5532 6.75597 33.8367 7.08794C35.8333 9.42567 35.8333 12.9505 35.8333 20C35.8333 27.0495 35.8333 30.5743 33.8367 32.912C33.5532 33.244 33.244 33.5532 32.912 33.8367C30.5743 35.8333 27.0495 35.8333 20 35.8333C12.9505 35.8333 9.42569 35.8333 7.08795 33.8367C6.75599 33.5532 6.44682 33.244 6.1633 32.912C4.16669 30.5743 4.16669 27.0495 4.16669 20Z" stroke="#00D995" stroke-width="1.5" stroke-linejoin="round"/>
<path id="Vector_2" d="M19.2307 12.089C19.589 11.5259 20.411 11.5259 20.7694 12.089L21.8062 13.718C22.9527 15.5195 24.4805 17.0473 26.282 18.1938L27.911 19.2307C28.4742 19.589 28.4742 20.411 27.911 20.7693L26.282 21.8062C24.4805 22.9527 22.9527 24.4805 21.8062 26.282L20.7694 27.911C20.411 28.4742 19.589 28.4742 19.2307 27.911L18.1939 26.282C17.0474 24.4805 15.5195 22.9527 13.7181 21.8062L12.089 20.7693C11.5259 20.411 11.5259 19.589 12.089 19.2307L13.7181 18.1938C15.5195 17.0473 17.0474 15.5195 18.1939 13.718L19.2307 12.089Z" stroke="#00D995" stroke-width="1.5" stroke-linejoin="round"/>
</g>
</svg>
