<svg width="150" height="150" viewBox="0 0 150 150" fill="none" xmlns="http://www.w3.org/2000/svg">
<g clip-path="url(#clip0_1_1119)">
<circle cx="75" cy="75" r="39" fill="#00D995" fill-opacity="0.16"/>
<circle cx="75.0001" cy="75.0001" r="35.759" stroke="#00D995" stroke-opacity="0.32" stroke-width="1.28205" stroke-linecap="round" stroke-linejoin="round"/>
<path d="M107.24 75.0003C107.24 92.8059 92.8057 107.24 75 107.24C57.1943 107.24 42.76 92.8059 42.76 75.0003C42.76 57.1946 57.1943 42.7603 75 42.7603C92.8057 42.7603 107.24 57.1946 107.24 75.0003Z" stroke="#00D995" stroke-opacity="0.16" stroke-width="1.28205" stroke-dasharray="2.56 2.56"/>
<path d="M107.24 74.9998C107.24 66.0969 103.631 58.0369 97.7971 52.2026M42.76 74.9998C42.76 83.9026 46.3686 91.9626 52.2029 97.7969" stroke="#00D995" stroke-width="1.92308" stroke-linecap="round" stroke-linejoin="round"/>
<path fill-rule="evenodd" clip-rule="evenodd" d="M63.7499 60.0002C63.7499 58.3893 65.0557 57.0835 66.6665 57.0835C68.2774 57.0835 69.5832 58.3893 69.5832 60.0002C69.5832 61.1637 68.9019 62.168 67.9165 62.6361V66.6668H65.4165V62.6361C64.4311 62.168 63.7499 61.1637 63.7499 60.0002Z" fill="#00D995"/>
<path fill-rule="evenodd" clip-rule="evenodd" d="M80.4169 60.0002C80.4169 58.3893 81.7227 57.0835 83.3335 57.0835C84.9444 57.0835 86.2502 58.3893 86.2502 60.0002C86.2502 61.1637 85.5689 62.168 84.5835 62.6361V66.6668H82.0835V62.6361C81.0982 62.168 80.4169 61.1637 80.4169 60.0002Z" fill="#00D995"/>
<path fill-rule="evenodd" clip-rule="evenodd" d="M61.2499 70.8338C61.2499 68.3025 63.3019 66.2505 65.8332 66.2505H84.1665C86.6979 66.2505 88.7499 68.3025 88.7499 70.8338V84.1672C88.7499 86.6985 86.6979 88.7505 84.1665 88.7505H82.6914L82.3117 90.6485C82.0152 92.131 80.288 92.814 79.0579 91.9352L75.1425 89.1385C74.7892 88.8862 74.3659 88.7505 73.9317 88.7505H65.8332C63.3019 88.7505 61.2499 86.6985 61.2499 84.1672V70.8338ZM69.9776 79.0892C70.481 78.6167 71.272 78.6417 71.7445 79.145C72.4335 79.8788 73.6032 80.4172 74.9999 80.4172C76.3965 80.4172 77.5662 79.8788 78.2552 79.145C78.7277 78.6417 79.5189 78.6167 80.022 79.0892C80.5254 79.5617 80.5504 80.3528 80.0779 80.856C78.8665 82.1462 77.0109 82.9172 74.9999 82.9172C72.9889 82.9172 71.1331 82.1462 69.9219 80.856C69.4494 80.3528 69.4743 79.5617 69.9776 79.0892ZM69.9999 71.6672C69.0794 71.6672 68.3332 72.4133 68.3332 73.3338C68.3332 74.2543 69.0794 75.0005 69.9999 75.0005H70.0148C70.9353 75.0005 71.6814 74.2543 71.6814 73.3338C71.6814 72.4133 70.9353 71.6672 70.0148 71.6672H69.9999ZM79.985 71.6672C79.0645 71.6672 78.3184 72.4133 78.3184 73.3338C78.3184 74.2543 79.0645 75.0005 79.985 75.0005H79.9999C80.9204 75.0005 81.6665 74.2543 81.6665 73.3338C81.6665 72.4133 80.9204 71.6672 79.9999 71.6672H79.985Z" fill="#00D995"/>
<path d="M59.5835 72.1196C57.8623 72.9096 56.6669 74.6483 56.6669 76.6663C56.6669 78.6841 57.8623 80.4228 59.5835 81.2128V72.1196Z" fill="#00D995"/>
<path d="M90.4166 81.2128C92.138 80.4228 93.3333 78.6841 93.3333 76.6663C93.3333 74.6483 92.138 72.9096 90.4166 72.1196V81.2128Z" fill="#00D995"/>
</g>
<path d="M5 136C5 128.268 11.268 122 19 122H132C139.732 122 146 128.268 146 136C146 143.732 139.732 150 132 150H19C11.268 150 5 143.732 5 136Z" fill="#00D995" fill-opacity="0.16"/>
<path d="M7 136C7 129.373 12.3726 124 19 124C25.6274 124 31 129.373 31 136C31 142.627 25.6274 148 19 148C12.3726 148 7 142.627 7 136Z" fill="#131B1D"/>
<path d="M25.1997 134.116C25.1788 134.193 25.0852 134.208 25.0223 134.159C24.1201 133.462 22.9886 133.048 21.7604 133.048C18.8111 133.048 16.4202 135.438 16.4202 138.388C16.4202 139.742 16.9245 140.979 17.7557 141.921C17.7794 141.947 17.7917 141.983 17.7835 142.018C17.7225 142.278 17.4621 142.44 17.2019 142.379C16.6537 142.25 16.1426 142.05 15.6551 141.799C15.425 141.68 15.1789 141.652 14.966 141.716L13.4373 142.174C12.576 142.433 11.773 141.63 12.0314 140.768L12.4899 139.24C12.5538 139.027 12.5258 138.781 12.4071 138.551C11.9504 137.665 11.6666 136.709 11.6666 135.603C11.6666 131.772 14.7721 128.667 18.6028 128.667C21.8462 128.667 24.434 130.889 25.2011 133.869C25.2228 133.953 25.221 134.038 25.1997 134.116Z" fill="#00D995"/>
<path fill-rule="evenodd" clip-rule="evenodd" d="M17.4537 138.387C17.4537 136.009 19.3818 134.081 21.7603 134.081C24.1388 134.081 26.0669 136.009 26.0669 138.387C26.0669 139.08 25.8886 139.678 25.6061 140.225C25.5598 140.315 25.5558 140.398 25.5735 140.457L25.8429 141.355C26.0479 142.038 25.4108 142.675 24.7275 142.47L23.8296 142.201C23.7704 142.183 23.688 142.187 23.5983 142.233C23.0507 142.516 22.4526 142.694 21.7603 142.694C19.3818 142.694 17.4537 140.766 17.4537 138.387Z" fill="#00D995"/>
<path d="M46.2422 134.102C46.2005 133.732 46.0286 133.445 45.7266 133.242C45.4245 133.036 45.0443 132.934 44.5859 132.934C44.2578 132.934 43.974 132.986 43.7344 133.09C43.4948 133.191 43.3086 133.332 43.1758 133.512C43.0456 133.689 42.9805 133.891 42.9805 134.117C42.9805 134.307 43.0247 134.471 43.1133 134.609C43.2044 134.747 43.3229 134.863 43.4688 134.957C43.6172 135.048 43.776 135.125 43.9453 135.188C44.1146 135.247 44.2773 135.297 44.4336 135.336L45.2148 135.539C45.4701 135.602 45.7318 135.686 46 135.793C46.2682 135.9 46.5169 136.04 46.7461 136.215C46.9753 136.389 47.1602 136.605 47.3008 136.863C47.444 137.121 47.5156 137.43 47.5156 137.789C47.5156 138.242 47.3984 138.645 47.1641 138.996C46.9323 139.348 46.5951 139.625 46.1523 139.828C45.7122 140.031 45.1797 140.133 44.5547 140.133C43.9557 140.133 43.4375 140.038 43 139.848C42.5625 139.658 42.2201 139.388 41.9727 139.039C41.7253 138.687 41.5885 138.271 41.5625 137.789H42.7734C42.7969 138.078 42.8906 138.319 43.0547 138.512C43.2214 138.702 43.4336 138.844 43.6914 138.937C43.9518 139.029 44.237 139.074 44.5469 139.074C44.888 139.074 45.1914 139.021 45.457 138.914C45.7253 138.805 45.9362 138.654 46.0898 138.461C46.2435 138.266 46.3203 138.038 46.3203 137.777C46.3203 137.54 46.2526 137.346 46.1172 137.195C45.9844 137.044 45.8034 136.919 45.5742 136.82C45.3477 136.721 45.0911 136.634 44.8047 136.559L43.8594 136.301C43.2188 136.126 42.7109 135.87 42.3359 135.531C41.9635 135.193 41.7773 134.745 41.7773 134.187C41.7773 133.727 41.9023 133.324 42.1523 132.98C42.4023 132.637 42.7409 132.37 43.168 132.18C43.5951 131.987 44.0768 131.891 44.6133 131.891C45.1549 131.891 45.6328 131.986 46.0469 132.176C46.4635 132.366 46.7917 132.628 47.0313 132.961C47.2708 133.292 47.3958 133.672 47.4063 134.102H46.2422ZM51.4502 140.121C50.859 140.121 50.3499 139.995 49.9229 139.742C49.4984 139.487 49.1702 139.129 48.9385 138.668C48.7093 138.204 48.5947 137.661 48.5947 137.039C48.5947 136.424 48.7093 135.883 48.9385 135.414C49.1702 134.945 49.4932 134.579 49.9072 134.316C50.3239 134.053 50.8109 133.922 51.3682 133.922C51.7067 133.922 52.0348 133.978 52.3525 134.09C52.6702 134.202 52.9554 134.378 53.208 134.617C53.4606 134.857 53.6598 135.168 53.8057 135.551C53.9515 135.931 54.0244 136.393 54.0244 136.937V137.352H49.2549V136.477H52.8799C52.8799 136.169 52.8174 135.897 52.6924 135.66C52.5674 135.421 52.3916 135.232 52.165 135.094C51.9411 134.956 51.6781 134.887 51.376 134.887C51.0479 134.887 50.7614 134.967 50.5166 135.129C50.2744 135.288 50.0869 135.496 49.9541 135.754C49.8239 136.009 49.7588 136.286 49.7588 136.586V137.27C49.7588 137.671 49.8291 138.012 49.9697 138.293C50.113 138.574 50.3122 138.789 50.5674 138.937C50.8226 139.083 51.1208 139.156 51.4619 139.156C51.6833 139.156 51.8851 139.125 52.0674 139.062C52.2497 138.997 52.4072 138.901 52.54 138.773C52.6729 138.646 52.7744 138.488 52.8447 138.301L53.9502 138.5C53.8617 138.826 53.7028 139.111 53.4736 139.355C53.2471 139.598 52.9619 139.786 52.6182 139.922C52.277 140.055 51.8877 140.121 51.4502 140.121ZM56.4883 132V140H55.3203V132H56.4883ZM60.6455 140.121C60.0544 140.121 59.5452 139.995 59.1182 139.742C58.6937 139.487 58.3656 139.129 58.1338 138.668C57.9046 138.204 57.79 137.661 57.79 137.039C57.79 136.424 57.9046 135.883 58.1338 135.414C58.3656 134.945 58.6885 134.579 59.1025 134.316C59.5192 134.053 60.0062 133.922 60.5635 133.922C60.902 133.922 61.2301 133.978 61.5479 134.09C61.8656 134.202 62.1507 134.378 62.4033 134.617C62.6559 134.857 62.8551 135.168 63.001 135.551C63.1468 135.931 63.2197 136.393 63.2197 136.937V137.352H58.4502V136.477H62.0752C62.0752 136.169 62.0127 135.897 61.8877 135.66C61.7627 135.421 61.5869 135.232 61.3604 135.094C61.1364 134.956 60.8734 134.887 60.5713 134.887C60.2432 134.887 59.9567 134.967 59.7119 135.129C59.4697 135.288 59.2822 135.496 59.1494 135.754C59.0192 136.009 58.9541 136.286 58.9541 136.586V137.27C58.9541 137.671 59.0244 138.012 59.165 138.293C59.3083 138.574 59.5075 138.789 59.7627 138.937C60.0179 139.083 60.3161 139.156 60.6572 139.156C60.8786 139.156 61.0804 139.125 61.2627 139.062C61.445 138.997 61.6025 138.901 61.7354 138.773C61.8682 138.646 61.9697 138.488 62.04 138.301L63.1455 138.5C63.057 138.826 62.8981 139.111 62.6689 139.355C62.4424 139.598 62.1572 139.786 61.8135 139.922C61.4723 140.055 61.083 140.121 60.6455 140.121ZM67.043 140.121C66.4622 140.121 65.9622 139.99 65.543 139.727C65.1263 139.461 64.806 139.095 64.582 138.629C64.3581 138.163 64.2461 137.629 64.2461 137.027C64.2461 136.418 64.3607 135.88 64.5898 135.414C64.819 134.945 65.1419 134.579 65.5586 134.316C65.9753 134.053 66.4661 133.922 67.0313 133.922C67.487 133.922 67.8932 134.007 68.25 134.176C68.6068 134.342 68.8945 134.577 69.1133 134.879C69.3346 135.181 69.4661 135.534 69.5078 135.937H68.3711C68.3086 135.656 68.1654 135.414 67.9414 135.211C67.7201 135.008 67.4232 134.906 67.0508 134.906C66.7253 134.906 66.4401 134.992 66.1953 135.164C65.9531 135.333 65.7643 135.576 65.6289 135.891C65.4935 136.203 65.4258 136.573 65.4258 137C65.4258 137.437 65.4922 137.815 65.625 138.133C65.7578 138.451 65.9453 138.697 66.1875 138.871C66.4323 139.046 66.7201 139.133 67.0508 139.133C67.2721 139.133 67.4727 139.092 67.6523 139.012C67.8346 138.928 67.987 138.81 68.1094 138.656C68.2344 138.503 68.3216 138.318 68.3711 138.102H69.5078C69.4661 138.49 69.3398 138.836 69.1289 139.141C68.918 139.445 68.6354 139.685 68.2813 139.859C67.9297 140.034 67.5169 140.121 67.043 140.121ZM73.5576 134V134.937H70.2803V134H73.5576ZM71.1592 132.562H72.3271V138.238C72.3271 138.465 72.361 138.635 72.4287 138.75C72.4964 138.862 72.5837 138.939 72.6904 138.98C72.7998 139.02 72.9183 139.039 73.0459 139.039C73.1396 139.039 73.2217 139.033 73.292 139.02C73.3623 139.007 73.417 138.996 73.4561 138.988L73.667 139.953C73.5993 139.979 73.5029 140.005 73.3779 140.031C73.2529 140.06 73.0967 140.076 72.9092 140.078C72.6019 140.083 72.3154 140.029 72.0498 139.914C71.7842 139.799 71.5693 139.622 71.4053 139.383C71.2412 139.143 71.1592 138.842 71.1592 138.48V132.562ZM84.499 134.602H83.2803C83.2334 134.341 83.1462 134.112 83.0186 133.914C82.891 133.716 82.7347 133.548 82.5498 133.41C82.3649 133.272 82.1579 133.168 81.9287 133.098C81.7021 133.027 81.4613 132.992 81.2061 132.992C80.7451 132.992 80.3324 133.108 79.9678 133.34C79.6058 133.572 79.3193 133.911 79.1084 134.359C78.9001 134.807 78.7959 135.354 78.7959 136C78.7959 136.651 78.9001 137.201 79.1084 137.648C79.3193 138.096 79.6071 138.435 79.9717 138.664C80.3363 138.893 80.7464 139.008 81.2021 139.008C81.4548 139.008 81.6943 138.974 81.9209 138.906C82.1501 138.836 82.3571 138.733 82.542 138.598C82.7269 138.462 82.8831 138.297 83.0107 138.102C83.141 137.904 83.2308 137.677 83.2803 137.422L84.499 137.426C84.4339 137.819 84.3076 138.181 84.1201 138.512C83.9352 138.84 83.6969 139.124 83.4053 139.363C83.1162 139.6 82.7855 139.784 82.4131 139.914C82.0407 140.044 81.6344 140.109 81.1943 140.109C80.5016 140.109 79.8844 139.945 79.3428 139.617C78.8011 139.286 78.374 138.814 78.0615 138.199C77.7516 137.585 77.5967 136.852 77.5967 136C77.5967 135.146 77.7529 134.413 78.0654 133.801C78.3779 133.186 78.805 132.715 79.3467 132.387C79.8883 132.056 80.5042 131.891 81.1943 131.891C81.6188 131.891 82.0146 131.952 82.3818 132.074C82.7516 132.194 83.0837 132.371 83.3779 132.605C83.6722 132.837 83.9157 133.121 84.1084 133.457C84.3011 133.79 84.4313 134.172 84.499 134.602ZM87.0176 136.437V140H85.8496V132H87.002V134.977H87.0762C87.2168 134.654 87.4316 134.397 87.7207 134.207C88.0098 134.017 88.3874 133.922 88.8535 133.922C89.265 133.922 89.6243 134.007 89.9316 134.176C90.2415 134.345 90.4811 134.598 90.6504 134.934C90.8223 135.267 90.9082 135.684 90.9082 136.184V140H89.7402V136.324C89.7402 135.884 89.627 135.543 89.4004 135.301C89.1738 135.056 88.8587 134.934 88.4551 134.934C88.179 134.934 87.9316 134.992 87.7129 135.109C87.4967 135.227 87.3262 135.398 87.2012 135.625C87.0788 135.849 87.0176 136.12 87.0176 136.437ZM94.2129 140.133C93.8327 140.133 93.4889 140.063 93.1816 139.922C92.8743 139.779 92.6309 139.572 92.4512 139.301C92.2741 139.03 92.1855 138.698 92.1855 138.305C92.1855 137.966 92.2507 137.687 92.3809 137.469C92.5111 137.25 92.6868 137.077 92.9082 136.949C93.1296 136.822 93.377 136.725 93.6504 136.66C93.9238 136.595 94.2025 136.546 94.4863 136.512C94.8457 136.47 95.1374 136.436 95.3613 136.41C95.5853 136.382 95.748 136.336 95.8496 136.273C95.9512 136.211 96.002 136.109 96.002 135.969V135.941C96.002 135.6 95.9056 135.336 95.7129 135.148C95.5228 134.961 95.2389 134.867 94.8613 134.867C94.4681 134.867 94.1582 134.954 93.9316 135.129C93.7077 135.301 93.5527 135.492 93.4668 135.703L92.3691 135.453C92.4993 135.089 92.6895 134.794 92.9395 134.57C93.1921 134.344 93.4824 134.18 93.8105 134.078C94.1387 133.974 94.4837 133.922 94.8457 133.922C95.0853 133.922 95.3392 133.951 95.6074 134.008C95.8783 134.062 96.1309 134.164 96.3652 134.312C96.6022 134.461 96.7962 134.673 96.9473 134.949C97.0983 135.223 97.1738 135.578 97.1738 136.016V140H96.0332V139.18H95.9863C95.9108 139.331 95.7975 139.479 95.6465 139.625C95.4954 139.771 95.3014 139.892 95.0645 139.988C94.8275 140.085 94.5436 140.133 94.2129 140.133ZM94.4668 139.195C94.7897 139.195 95.0658 139.132 95.2949 139.004C95.5267 138.876 95.7025 138.71 95.8223 138.504C95.9447 138.296 96.0059 138.073 96.0059 137.836V137.062C95.9642 137.104 95.8835 137.143 95.7637 137.18C95.6465 137.214 95.5124 137.243 95.3613 137.27C95.2103 137.293 95.0632 137.315 94.9199 137.336C94.7767 137.354 94.6569 137.37 94.5605 137.383C94.334 137.411 94.127 137.46 93.9395 137.527C93.7546 137.595 93.6061 137.693 93.4941 137.82C93.3848 137.945 93.3301 138.112 93.3301 138.32C93.3301 138.609 93.4368 138.828 93.6504 138.977C93.8639 139.122 94.1361 139.195 94.4668 139.195ZM98.7295 140V134H99.8584V134.953H99.9209C100.03 134.63 100.223 134.376 100.499 134.191C100.778 134.004 101.093 133.91 101.444 133.91C101.517 133.91 101.603 133.913 101.702 133.918C101.804 133.923 101.883 133.93 101.94 133.937V135.055C101.894 135.042 101.81 135.027 101.69 135.012C101.571 134.993 101.451 134.984 101.331 134.984C101.055 134.984 100.809 135.043 100.593 135.16C100.379 135.275 100.21 135.435 100.085 135.641C99.96 135.844 99.8975 136.076 99.8975 136.336V140H98.7295ZM104.644 140.133C104.263 140.133 103.92 140.063 103.612 139.922C103.305 139.779 103.062 139.572 102.882 139.301C102.705 139.03 102.616 138.698 102.616 138.305C102.616 137.966 102.681 137.687 102.812 137.469C102.942 137.25 103.118 137.077 103.339 136.949C103.56 136.822 103.808 136.725 104.081 136.66C104.354 136.595 104.633 136.546 104.917 136.512C105.276 136.47 105.568 136.436 105.792 136.41C106.016 136.382 106.179 136.336 106.28 136.273C106.382 136.211 106.433 136.109 106.433 135.969V135.941C106.433 135.6 106.336 135.336 106.144 135.148C105.953 134.961 105.67 134.867 105.292 134.867C104.899 134.867 104.589 134.954 104.362 135.129C104.138 135.301 103.983 135.492 103.897 135.703L102.8 135.453C102.93 135.089 103.12 134.794 103.37 134.57C103.623 134.344 103.913 134.18 104.241 134.078C104.569 133.974 104.914 133.922 105.276 133.922C105.516 133.922 105.77 133.951 106.038 134.008C106.309 134.062 106.562 134.164 106.796 134.312C107.033 134.461 107.227 134.673 107.378 134.949C107.529 135.223 107.604 135.578 107.604 136.016V140H106.464V139.18H106.417C106.341 139.331 106.228 139.479 106.077 139.625C105.926 139.771 105.732 139.892 105.495 139.988C105.258 140.085 104.974 140.133 104.644 140.133ZM104.897 139.195C105.22 139.195 105.496 139.132 105.726 139.004C105.957 138.876 106.133 138.71 106.253 138.504C106.375 138.296 106.437 138.073 106.437 137.836V137.062C106.395 137.104 106.314 137.143 106.194 137.18C106.077 137.214 105.943 137.243 105.792 137.27C105.641 137.293 105.494 137.315 105.351 137.336C105.207 137.354 105.088 137.37 104.991 137.383C104.765 137.411 104.558 137.46 104.37 137.527C104.185 137.595 104.037 137.693 103.925 137.82C103.815 137.945 103.761 138.112 103.761 138.32C103.761 138.609 103.868 138.828 104.081 138.977C104.295 139.122 104.567 139.195 104.897 139.195ZM111.688 140.121C111.107 140.121 110.607 139.99 110.188 139.727C109.771 139.461 109.451 139.095 109.227 138.629C109.003 138.163 108.891 137.629 108.891 137.027C108.891 136.418 109.005 135.88 109.234 135.414C109.464 134.945 109.786 134.579 110.203 134.316C110.62 134.053 111.111 133.922 111.676 133.922C112.132 133.922 112.538 134.007 112.895 134.176C113.251 134.342 113.539 134.577 113.758 134.879C113.979 135.181 114.111 135.534 114.152 135.937H113.016C112.953 135.656 112.81 135.414 112.586 135.211C112.365 135.008 112.068 134.906 111.695 134.906C111.37 134.906 111.085 134.992 110.84 135.164C110.598 135.333 110.409 135.576 110.273 135.891C110.138 136.203 110.07 136.573 110.07 137C110.07 137.437 110.137 137.815 110.27 138.133C110.402 138.451 110.59 138.697 110.832 138.871C111.077 139.046 111.365 139.133 111.695 139.133C111.917 139.133 112.117 139.092 112.297 139.012C112.479 138.928 112.632 138.81 112.754 138.656C112.879 138.503 112.966 138.318 113.016 138.102H114.152C114.111 138.49 113.984 138.836 113.773 139.141C113.563 139.445 113.28 139.685 112.926 139.859C112.574 140.034 112.161 140.121 111.688 140.121ZM118.202 134V134.937H114.925V134H118.202ZM115.804 132.562H116.972V138.238C116.972 138.465 117.006 138.635 117.073 138.75C117.141 138.862 117.228 138.939 117.335 138.98C117.444 139.02 117.563 139.039 117.69 139.039C117.784 139.039 117.866 139.033 117.937 139.02C118.007 139.007 118.062 138.996 118.101 138.988L118.312 139.953C118.244 139.979 118.147 140.005 118.022 140.031C117.897 140.06 117.741 140.076 117.554 140.078C117.246 140.083 116.96 140.029 116.694 139.914C116.429 139.799 116.214 139.622 116.05 139.383C115.886 139.143 115.804 138.842 115.804 138.48V132.562ZM122.016 140.121C121.424 140.121 120.915 139.995 120.488 139.742C120.064 139.487 119.736 139.129 119.504 138.668C119.275 138.204 119.16 137.661 119.16 137.039C119.16 136.424 119.275 135.883 119.504 135.414C119.736 134.945 120.059 134.579 120.473 134.316C120.889 134.053 121.376 133.922 121.934 133.922C122.272 133.922 122.6 133.978 122.918 134.09C123.236 134.202 123.521 134.378 123.773 134.617C124.026 134.857 124.225 135.168 124.371 135.551C124.517 135.931 124.59 136.393 124.59 136.937V137.352H119.82V136.477H123.445C123.445 136.169 123.383 135.897 123.258 135.66C123.133 135.421 122.957 135.232 122.73 135.094C122.507 134.956 122.243 134.887 121.941 134.887C121.613 134.887 121.327 134.967 121.082 135.129C120.84 135.288 120.652 135.496 120.52 135.754C120.389 136.009 120.324 136.286 120.324 136.586V137.27C120.324 137.671 120.395 138.012 120.535 138.293C120.678 138.574 120.878 138.789 121.133 138.937C121.388 139.083 121.686 139.156 122.027 139.156C122.249 139.156 122.451 139.125 122.633 139.062C122.815 138.997 122.973 138.901 123.105 138.773C123.238 138.646 123.34 138.488 123.41 138.301L124.516 138.5C124.427 138.826 124.268 139.111 124.039 139.355C123.813 139.598 123.527 139.786 123.184 139.922C122.842 140.055 122.453 140.121 122.016 140.121ZM125.886 140V134H127.015V134.953H127.077C127.187 134.63 127.379 134.376 127.655 134.191C127.934 134.004 128.249 133.91 128.601 133.91C128.674 133.91 128.759 133.913 128.858 133.918C128.96 133.923 129.039 133.93 129.097 133.937V135.055C129.05 135.042 128.966 135.027 128.847 135.012C128.727 134.993 128.607 134.984 128.487 134.984C128.211 134.984 127.965 135.043 127.749 135.16C127.535 135.275 127.366 135.435 127.241 135.641C127.116 135.844 127.054 136.076 127.054 136.336V140H125.886Z" fill="#00D995"/>
<path d="M8 14C8 6.26801 14.268 0 22 0H129C136.732 0 143 6.26801 143 14C143 21.732 136.732 28 129 28H22C14.268 28 8 21.732 8 14Z" fill="#00D995" fill-opacity="0.16"/>
<path d="M10 14C10 7.37258 15.3726 2 22 2C28.6274 2 34 7.37258 34 14C34 20.6274 28.6274 26 22 26C15.3726 26 10 20.6274 10 14Z" fill="#131B1D"/>
<path fill-rule="evenodd" clip-rule="evenodd" d="M16.1666 19.9999C16.1666 17.1465 18.4798 14.8333 21.3333 14.8333H22.6666C25.5201 14.8333 27.8333 17.1465 27.8333 19.9999C27.8333 20.2761 27.6094 20.4999 27.3333 20.4999H16.6666C16.3905 20.4999 16.1666 20.2761 16.1666 19.9999Z" fill="#00D995"/>
<path fill-rule="evenodd" clip-rule="evenodd" d="M18.8334 10.6667C18.8334 8.91777 20.2511 7.5 22 7.5C23.749 7.5 25.1667 8.91777 25.1667 10.6667C25.1667 12.4156 23.749 13.8333 22 13.8333C20.2511 13.8333 18.8334 12.4156 18.8334 10.6667Z" fill="#00D995"/>
<path d="M51.5234 12.6016H50.3047C50.2578 12.3411 50.1706 12.112 50.043 11.9141C49.9154 11.7161 49.7591 11.5482 49.5742 11.4102C49.3893 11.2721 49.1823 11.168 48.9531 11.0977C48.7266 11.0273 48.4857 10.9922 48.2305 10.9922C47.7695 10.9922 47.3568 11.1081 46.9922 11.3398C46.6302 11.5716 46.3438 11.9115 46.1328 12.3594C45.9245 12.8073 45.8203 13.3542 45.8203 14C45.8203 14.651 45.9245 15.2005 46.1328 15.6484C46.3438 16.0964 46.6315 16.4349 46.9961 16.6641C47.3607 16.8932 47.7708 17.0078 48.2266 17.0078C48.4792 17.0078 48.7188 16.974 48.9453 16.9062C49.1745 16.8359 49.3815 16.7331 49.5664 16.5977C49.7513 16.4622 49.9076 16.2969 50.0352 16.1016C50.1654 15.9036 50.2552 15.6771 50.3047 15.4219L51.5234 15.4258C51.4583 15.819 51.332 16.181 51.1445 16.5117C50.9596 16.8398 50.7214 17.1237 50.4297 17.3633C50.1406 17.6003 49.8099 17.7839 49.4375 17.9141C49.0651 18.0443 48.6589 18.1094 48.2188 18.1094C47.526 18.1094 46.9089 17.9453 46.3672 17.6172C45.8255 17.2865 45.3984 16.8138 45.0859 16.1992C44.776 15.5846 44.6211 14.8516 44.6211 14C44.6211 13.1458 44.7773 12.4128 45.0898 11.8008C45.4023 11.1862 45.8294 10.7148 46.3711 10.3867C46.9128 10.056 47.5286 9.89062 48.2188 9.89062C48.6432 9.89062 49.0391 9.95182 49.4063 10.0742C49.776 10.194 50.1081 10.3711 50.4023 10.6055C50.6966 10.8372 50.9401 11.1211 51.1328 11.457C51.3255 11.7904 51.4557 12.1719 51.5234 12.6016ZM52.874 18V12H54.0029V12.9531H54.0654C54.1748 12.6302 54.3675 12.3763 54.6436 12.1914C54.9222 12.0039 55.2373 11.9102 55.5889 11.9102C55.6618 11.9102 55.7477 11.9128 55.8467 11.918C55.9482 11.9232 56.0277 11.9297 56.085 11.9375V13.0547C56.0381 13.0417 55.9548 13.0273 55.835 13.0117C55.7152 12.9935 55.5954 12.9844 55.4756 12.9844C55.1995 12.9844 54.9535 13.043 54.7373 13.1602C54.5238 13.2747 54.3545 13.4349 54.2295 13.6406C54.1045 13.8437 54.042 14.0755 54.042 14.3359V18H52.874ZM59.4668 18.1211C58.8757 18.1211 58.3665 17.9948 57.9395 17.7422C57.515 17.487 57.1868 17.1289 56.9551 16.668C56.7259 16.2044 56.6113 15.6615 56.6113 15.0391C56.6113 14.4245 56.7259 13.8828 56.9551 13.4141C57.1868 12.9453 57.5098 12.5794 57.9238 12.3164C58.3405 12.0534 58.8275 11.9219 59.3848 11.9219C59.7233 11.9219 60.0514 11.9779 60.3691 12.0898C60.6868 12.2018 60.972 12.3776 61.2246 12.6172C61.4772 12.8568 61.6764 13.168 61.8223 13.5508C61.9681 13.931 62.041 14.3932 62.041 14.9375V15.3516H57.2715V14.4766H60.8965C60.8965 14.1693 60.834 13.8971 60.709 13.6602C60.584 13.4206 60.4082 13.2318 60.1816 13.0937C59.9577 12.9557 59.6947 12.8867 59.3926 12.8867C59.0645 12.8867 58.778 12.9674 58.5332 13.1289C58.291 13.2878 58.1035 13.4961 57.9707 13.7539C57.8405 14.0091 57.7754 14.2865 57.7754 14.5859V15.2695C57.7754 15.6706 57.8457 16.0117 57.9863 16.293C58.1296 16.5742 58.3288 16.7891 58.584 16.9375C58.8392 17.0833 59.1374 17.1562 59.4785 17.1562C59.6999 17.1562 59.9017 17.125 60.084 17.0625C60.2663 16.9974 60.4238 16.901 60.5566 16.7734C60.6895 16.6458 60.791 16.4883 60.8613 16.3008L61.9668 16.5C61.8783 16.8255 61.7194 17.1107 61.4902 17.3555C61.2637 17.5977 60.9785 17.7865 60.6348 17.9219C60.2936 18.0547 59.9043 18.1211 59.4668 18.1211ZM65.083 18.1328C64.7028 18.1328 64.359 18.0625 64.0518 17.9219C63.7445 17.7786 63.501 17.5716 63.3213 17.3008C63.1442 17.0299 63.0557 16.6979 63.0557 16.3047C63.0557 15.9661 63.1208 15.6875 63.251 15.4687C63.3812 15.25 63.557 15.0768 63.7783 14.9492C63.9997 14.8216 64.2471 14.7253 64.5205 14.6602C64.7939 14.5951 65.0726 14.5456 65.3564 14.5117C65.7158 14.4701 66.0075 14.4362 66.2314 14.4102C66.4554 14.3815 66.6182 14.3359 66.7197 14.2734C66.8213 14.2109 66.8721 14.1094 66.8721 13.9687V13.9414C66.8721 13.6003 66.7757 13.3359 66.583 13.1484C66.3929 12.9609 66.109 12.8672 65.7314 12.8672C65.3382 12.8672 65.0283 12.9544 64.8018 13.1289C64.5778 13.3008 64.4229 13.4922 64.3369 13.7031L63.2393 13.4531C63.3695 13.0885 63.5596 12.7943 63.8096 12.5703C64.0622 12.3437 64.3525 12.1797 64.6807 12.0781C65.0088 11.974 65.3538 11.9219 65.7158 11.9219C65.9554 11.9219 66.2093 11.9505 66.4775 12.0078C66.7484 12.0625 67.001 12.1641 67.2354 12.3125C67.4723 12.4609 67.6663 12.6732 67.8174 12.9492C67.9684 13.2227 68.0439 13.5781 68.0439 14.0156V18H66.9033V17.1797H66.8564C66.7809 17.3307 66.6676 17.4792 66.5166 17.625C66.3656 17.7708 66.1715 17.8919 65.9346 17.9883C65.6976 18.0846 65.4137 18.1328 65.083 18.1328ZM65.3369 17.1953C65.6598 17.1953 65.9359 17.1315 66.165 17.0039C66.3968 16.8763 66.5726 16.7096 66.6924 16.5039C66.8148 16.2956 66.876 16.0729 66.876 15.8359V15.0625C66.8343 15.1042 66.7536 15.1432 66.6338 15.1797C66.5166 15.2135 66.3825 15.2435 66.2314 15.2695C66.0804 15.293 65.9333 15.3151 65.79 15.3359C65.6468 15.3542 65.527 15.3698 65.4307 15.3828C65.2041 15.4115 64.9971 15.4596 64.8096 15.5273C64.6247 15.5951 64.4762 15.6927 64.3643 15.8203C64.2549 15.9453 64.2002 16.112 64.2002 16.3203C64.2002 16.6094 64.307 16.8281 64.5205 16.9766C64.734 17.1224 65.0062 17.1953 65.3369 17.1953ZM72.4004 12V12.9375H69.123V12H72.4004ZM70.002 10.5625H71.1699V16.2383C71.1699 16.4648 71.2038 16.6354 71.2715 16.75C71.3392 16.862 71.4264 16.9388 71.5332 16.9805C71.6426 17.0195 71.7611 17.0391 71.8887 17.0391C71.9824 17.0391 72.0645 17.0326 72.1348 17.0195C72.2051 17.0065 72.2598 16.9961 72.2988 16.9883L72.5098 17.9531C72.4421 17.9792 72.3457 18.0052 72.2207 18.0313C72.0957 18.0599 71.9395 18.0755 71.752 18.0781C71.4447 18.0833 71.1582 18.0286 70.8926 17.9141C70.627 17.7995 70.4121 17.6224 70.248 17.3828C70.084 17.1432 70.002 16.8424 70.002 16.4805V10.5625ZM76.2139 18.1211C75.6227 18.1211 75.1136 17.9948 74.6865 17.7422C74.262 17.487 73.9339 17.1289 73.7021 16.668C73.473 16.2044 73.3584 15.6615 73.3584 15.0391C73.3584 14.4245 73.473 13.8828 73.7021 13.4141C73.9339 12.9453 74.2568 12.5794 74.6709 12.3164C75.0876 12.0534 75.5745 11.9219 76.1318 11.9219C76.4704 11.9219 76.7985 11.9779 77.1162 12.0898C77.4339 12.2018 77.7191 12.3776 77.9717 12.6172C78.2243 12.8568 78.4235 13.168 78.5693 13.5508C78.7152 13.931 78.7881 14.3932 78.7881 14.9375V15.3516H74.0186V14.4766H77.6436C77.6436 14.1693 77.5811 13.8971 77.4561 13.6602C77.3311 13.4206 77.1553 13.2318 76.9287 13.0937C76.7048 12.9557 76.4417 12.8867 76.1396 12.8867C75.8115 12.8867 75.5251 12.9674 75.2803 13.1289C75.0381 13.2878 74.8506 13.4961 74.7178 13.7539C74.5876 14.0091 74.5225 14.2865 74.5225 14.5859V15.2695C74.5225 15.6706 74.5928 16.0117 74.7334 16.293C74.8766 16.5742 75.0758 16.7891 75.3311 16.9375C75.5863 17.0833 75.8844 17.1562 76.2256 17.1562C76.4469 17.1562 76.6488 17.125 76.8311 17.0625C77.0133 16.9974 77.1709 16.901 77.3037 16.7734C77.4365 16.6458 77.5381 16.4883 77.6084 16.3008L78.7139 16.5C78.6253 16.8255 78.4665 17.1107 78.2373 17.3555C78.0107 17.5977 77.7256 17.7865 77.3818 17.9219C77.0407 18.0547 76.6514 18.1211 76.2139 18.1211ZM83.7646 18H82.4834L85.3623 10H86.7568L89.6357 18H88.3545L86.0928 11.4531H86.0303L83.7646 18ZM83.9795 14.8672H88.1357V15.8828H83.9795V14.8672ZM93.1279 18.1211C92.5472 18.1211 92.0472 17.9896 91.6279 17.7266C91.2113 17.4609 90.891 17.0951 90.667 16.6289C90.443 16.1628 90.3311 15.6289 90.3311 15.0273C90.3311 14.418 90.4456 13.8802 90.6748 13.4141C90.904 12.9453 91.2269 12.5794 91.6436 12.3164C92.0602 12.0534 92.5511 11.9219 93.1162 11.9219C93.5719 11.9219 93.9782 12.0065 94.335 12.1758C94.6917 12.3424 94.9795 12.5768 95.1982 12.8789C95.4196 13.181 95.5511 13.5339 95.5928 13.9375H94.4561C94.3936 13.6562 94.2503 13.4141 94.0264 13.2109C93.805 13.0078 93.5081 12.9062 93.1357 12.9062C92.8102 12.9062 92.5251 12.9922 92.2803 13.1641C92.0381 13.3333 91.8493 13.5755 91.7139 13.8906C91.5785 14.2031 91.5107 14.5729 91.5107 15C91.5107 15.4375 91.5771 15.8151 91.71 16.1328C91.8428 16.4505 92.0303 16.6966 92.2725 16.8711C92.5173 17.0456 92.805 17.1328 93.1357 17.1328C93.3571 17.1328 93.5576 17.0924 93.7373 17.0117C93.9196 16.9284 94.0719 16.8099 94.1943 16.6562C94.3193 16.5026 94.4066 16.3177 94.4561 16.1016H95.5928C95.5511 16.4896 95.4248 16.8359 95.2139 17.1406C95.0029 17.4453 94.7204 17.6849 94.3662 17.8594C94.0146 18.0339 93.6019 18.1211 93.1279 18.1211ZM99.3691 18.1211C98.7884 18.1211 98.2884 17.9896 97.8691 17.7266C97.4525 17.4609 97.1322 17.0951 96.9082 16.6289C96.6842 16.1628 96.5723 15.6289 96.5723 15.0273C96.5723 14.418 96.6868 13.8802 96.916 13.4141C97.1452 12.9453 97.4681 12.5794 97.8848 12.3164C98.3014 12.0534 98.7923 11.9219 99.3574 11.9219C99.8132 11.9219 100.219 12.0065 100.576 12.1758C100.933 12.3424 101.221 12.5768 101.439 12.8789C101.661 13.181 101.792 13.5339 101.834 13.9375H100.697C100.635 13.6562 100.492 13.4141 100.268 13.2109C100.046 13.0078 99.7493 12.9062 99.377 12.9062C99.0514 12.9062 98.7663 12.9922 98.5215 13.1641C98.2793 13.3333 98.0905 13.5755 97.9551 13.8906C97.8197 14.2031 97.752 14.5729 97.752 15C97.752 15.4375 97.8184 15.8151 97.9512 16.1328C98.084 16.4505 98.2715 16.6966 98.5137 16.8711C98.7585 17.0456 99.0462 17.1328 99.377 17.1328C99.5983 17.1328 99.7988 17.0924 99.9785 17.0117C100.161 16.9284 100.313 16.8099 100.436 16.6562C100.561 16.5026 100.648 16.3177 100.697 16.1016H101.834C101.792 16.4896 101.666 16.8359 101.455 17.1406C101.244 17.4453 100.962 17.6849 100.607 17.8594C100.256 18.0339 99.8431 18.1211 99.3691 18.1211ZM105.61 18.1211C105.048 18.1211 104.557 17.9922 104.138 17.7344C103.718 17.4766 103.393 17.1159 103.161 16.6523C102.929 16.1888 102.813 15.6471 102.813 15.0273C102.813 14.4049 102.929 13.8607 103.161 13.3945C103.393 12.9284 103.718 12.5664 104.138 12.3086C104.557 12.0508 105.048 11.9219 105.61 11.9219C106.173 11.9219 106.664 12.0508 107.083 12.3086C107.502 12.5664 107.828 12.9284 108.06 13.3945C108.291 13.8607 108.407 14.4049 108.407 15.0273C108.407 15.6471 108.291 16.1888 108.06 16.6523C107.828 17.1159 107.502 17.4766 107.083 17.7344C106.664 17.9922 106.173 18.1211 105.61 18.1211ZM105.614 17.1406C105.979 17.1406 106.281 17.0443 106.521 16.8516C106.76 16.6589 106.937 16.4023 107.052 16.082C107.169 15.7617 107.228 15.4089 107.228 15.0234C107.228 14.6406 107.169 14.2891 107.052 13.9687C106.937 13.6458 106.76 13.3867 106.521 13.1914C106.281 12.9961 105.979 12.8984 105.614 12.8984C105.247 12.8984 104.942 12.9961 104.7 13.1914C104.461 13.3867 104.282 13.6458 104.165 13.9687C104.05 14.2891 103.993 14.6406 103.993 15.0234C103.993 15.4089 104.05 15.7617 104.165 16.082C104.282 16.4023 104.461 16.6589 104.7 16.8516C104.942 17.0443 105.247 17.1406 105.614 17.1406ZM113.512 15.5117V12H114.684V18H113.535V16.9609H113.473C113.335 17.2813 113.113 17.5482 112.809 17.7617C112.507 17.9727 112.13 18.0781 111.68 18.0781C111.294 18.0781 110.953 17.9935 110.656 17.8242C110.362 17.6523 110.13 17.3984 109.961 17.0625C109.794 16.7266 109.711 16.3112 109.711 15.8164V12H110.879V15.6758C110.879 16.0846 110.992 16.4102 111.219 16.6523C111.445 16.8945 111.74 17.0156 112.102 17.0156C112.32 17.0156 112.538 16.9609 112.754 16.8516C112.973 16.7422 113.154 16.5768 113.297 16.3555C113.443 16.1341 113.514 15.8529 113.512 15.5117ZM117.421 14.4375V18H116.253V12H117.374V12.9766H117.448C117.586 12.6589 117.802 12.4036 118.097 12.2109C118.394 12.0182 118.767 11.9219 119.218 11.9219C119.627 11.9219 119.985 12.0078 120.292 12.1797C120.599 12.349 120.838 12.6016 121.007 12.9375C121.176 13.2734 121.261 13.6888 121.261 14.1836V18H120.093V14.3242C120.093 13.8893 119.979 13.5495 119.753 13.3047C119.526 13.0573 119.215 12.9336 118.819 12.9336C118.549 12.9336 118.308 12.9922 118.097 13.1094C117.888 13.2266 117.723 13.3984 117.601 13.625C117.481 13.849 117.421 14.1198 117.421 14.4375ZM125.628 12V12.9375H122.351V12H125.628ZM123.229 10.5625H124.397V16.2383C124.397 16.4648 124.431 16.6354 124.499 16.75C124.567 16.862 124.654 16.9388 124.761 16.9805C124.87 17.0195 124.989 17.0391 125.116 17.0391C125.21 17.0391 125.292 17.0326 125.362 17.0195C125.433 17.0065 125.487 16.9961 125.526 16.9883L125.737 17.9531C125.67 17.9792 125.573 18.0052 125.448 18.0313C125.323 18.0599 125.167 18.0755 124.979 18.0781C124.672 18.0833 124.386 18.0286 124.12 17.9141C123.854 17.7995 123.64 17.6224 123.476 17.3828C123.312 17.1432 123.229 16.8424 123.229 16.4805V10.5625Z" fill="#00D995"/>
<path d="M122 28V122" stroke="#00D995" stroke-opacity="0.16" stroke-dasharray="3 3"/>
<path d="M28 114L122 114" stroke="#00D995" stroke-opacity="0.16" stroke-dasharray="3 3"/>
<path d="M28 36L122 36" stroke="#00D995" stroke-opacity="0.16" stroke-dasharray="3 3"/>
<path d="M28 28V122" stroke="#00D995" stroke-opacity="0.16" stroke-dasharray="3 3"/>
<defs>
<clipPath id="clip0_1_1119">
<rect width="78" height="78" fill="white" transform="translate(36 36)"/>
</clipPath>
</defs>
</svg>
