<svg width="150" height="150" viewBox="0 0 150 150" fill="none" xmlns="http://www.w3.org/2000/svg">
<g clip-path="url(#clip0_1_1180)">
<circle cx="75" cy="75" r="75" fill="#00D995" fill-opacity="0.16"/>
<circle cx="75" cy="75" r="5" fill="#00D995"/>
<path d="M115 36L106.635 38.2414L112.759 44.3652L115 36ZM75.5303 76.5303L110.757 41.3033L109.697 40.2426L74.4697 75.4697L75.5303 76.5303Z" fill="#00D995"/>
<circle cx="75" cy="75" r="69.5" stroke="#00D995" stroke-opacity="0.32"/>
<path d="M137 75C137 109.242 109.242 137 75 137M137 75C137 40.7583 109.242 13 75 13C40.7583 13 13 40.7583 13 75M137 75H75M75 137C40.7583 137 13 109.242 13 75M75 137V75M13 75H75" stroke="#00D995" stroke-opacity="0.16" stroke-dasharray="3 3"/>
<path d="M26 112.992C17.8515 102.497 13 89.3152 13 75C13 40.7583 40.7583 13 75 13C109.242 13 137 40.7583 137 75C137 89.3152 132.148 102.497 124 112.992" stroke="#00D995" stroke-width="1.5" stroke-linecap="round"/>
<path d="M72.4581 19.7273V27H71.5774V20.6506H71.5348L69.7592 21.8295V20.9347L71.5774 19.7273H72.4581ZM74.5497 27V26.3608L76.9503 23.733C77.232 23.4252 77.464 23.1577 77.6463 22.9304C77.8286 22.7008 77.9635 22.4853 78.0511 22.2841C78.1411 22.0805 78.1861 21.8674 78.1861 21.6449C78.1861 21.3892 78.1245 21.1679 78.0014 20.9808C77.8807 20.7938 77.715 20.6494 77.5043 20.5476C77.2936 20.4458 77.0568 20.3949 76.794 20.3949C76.5147 20.3949 76.2708 20.4529 76.0625 20.5689C75.8565 20.6825 75.6967 20.8423 75.5831 21.0483C75.4718 21.2543 75.4162 21.4957 75.4162 21.7727H74.5781C74.5781 21.3466 74.6764 20.9725 74.8729 20.6506C75.0694 20.3286 75.3369 20.0777 75.6754 19.8977C76.0163 19.7178 76.3987 19.6278 76.8224 19.6278C77.2486 19.6278 77.6262 19.7178 77.9553 19.8977C78.2843 20.0777 78.5424 20.3203 78.7294 20.6257C78.9164 20.9311 79.0099 21.2708 79.0099 21.6449C79.0099 21.9124 78.9614 22.174 78.8643 22.4297C78.7696 22.683 78.6039 22.9659 78.3672 23.2784C78.1328 23.5885 77.8073 23.9673 77.3906 24.4148L75.7571 26.1619V26.2188H79.1378V27H74.5497Z" fill="#00D995" fill-opacity="0.48"/>
<path d="M75.5475 131.099C75.2492 131.095 74.9509 131.038 74.6526 130.929C74.3543 130.82 74.0821 130.637 73.8358 130.379C73.5896 130.118 73.392 129.767 73.2428 129.324C73.0937 128.879 73.0191 128.32 73.0191 127.648C73.0191 127.004 73.0795 126.433 73.2002 125.936C73.3209 125.437 73.4961 125.016 73.7258 124.675C73.9554 124.332 74.2324 124.072 74.5567 123.894C74.8834 123.717 75.2516 123.628 75.6611 123.628C76.0683 123.628 76.4305 123.71 76.7478 123.873C77.0674 124.034 77.3278 124.259 77.529 124.548C77.7303 124.836 77.8605 125.169 77.9197 125.545H77.0532C76.9727 125.219 76.8164 124.948 76.5844 124.732C76.3524 124.517 76.0447 124.409 75.6611 124.409C75.0977 124.409 74.6538 124.654 74.3295 125.144C74.0075 125.634 73.8453 126.322 73.843 127.207H73.8998C74.0323 127.006 74.1898 126.835 74.3721 126.692C74.5567 126.548 74.7603 126.437 74.9829 126.359C75.2054 126.281 75.441 126.241 75.6895 126.241C76.1062 126.241 76.4874 126.346 76.833 126.554C77.1787 126.76 77.4556 127.045 77.664 127.41C77.8723 127.772 77.9765 128.188 77.9765 128.656C77.9765 129.106 77.8759 129.518 77.6746 129.892C77.4734 130.264 77.1905 130.56 76.8259 130.78C76.4637 130.998 76.0376 131.104 75.5475 131.099ZM75.5475 130.318C75.8458 130.318 76.1133 130.244 76.3501 130.094C76.5892 129.945 76.7774 129.745 76.9147 129.494C77.0544 129.243 77.1242 128.964 77.1242 128.656C77.1242 128.356 77.0567 128.082 76.9218 127.836C76.7892 127.587 76.6057 127.39 76.3714 127.243C76.1394 127.096 75.8742 127.023 75.5759 127.023C75.351 127.023 75.1415 127.068 74.9474 127.158C74.7532 127.245 74.5828 127.366 74.436 127.52C74.2916 127.674 74.1779 127.85 74.0951 128.049C74.0122 128.246 73.9708 128.453 73.9708 128.67C73.9708 128.959 74.0383 129.229 74.1732 129.48C74.3105 129.731 74.4975 129.933 74.7343 130.087C74.9734 130.241 75.2445 130.318 75.5475 130.318Z" fill="#00D995" fill-opacity="0.48"/>
<path d="M129.843 79.0994C129.374 79.0994 128.956 79.0189 128.589 78.858C128.225 78.697 127.935 78.4732 127.719 78.1868C127.506 77.898 127.39 77.563 127.371 77.1818H128.266C128.285 77.4162 128.366 77.6186 128.508 77.7891C128.65 77.9571 128.836 78.0874 129.065 78.1797C129.295 78.272 129.549 78.3182 129.829 78.3182C130.141 78.3182 130.418 78.2637 130.66 78.1548C130.901 78.0459 131.091 77.8944 131.228 77.7003C131.365 77.5062 131.434 77.2812 131.434 77.0256C131.434 76.758 131.368 76.5225 131.235 76.3189C131.103 76.1129 130.908 75.9519 130.653 75.8359C130.397 75.7199 130.085 75.6619 129.715 75.6619H129.133V74.8807H129.715C130.004 74.8807 130.257 74.8286 130.475 74.7244C130.695 74.6203 130.867 74.4735 130.99 74.2841C131.116 74.0947 131.178 73.8722 131.178 73.6165C131.178 73.3703 131.124 73.156 131.015 72.9737C130.906 72.7914 130.752 72.6494 130.553 72.5476C130.357 72.4458 130.125 72.3949 129.857 72.3949C129.606 72.3949 129.37 72.4411 129.147 72.5334C128.927 72.6233 128.747 72.7547 128.607 72.9276C128.468 73.098 128.392 73.304 128.38 73.5455H127.528C127.542 73.1643 127.657 72.8305 127.872 72.544C128.088 72.2552 128.369 72.0303 128.717 71.8693C129.068 71.7083 129.452 71.6278 129.871 71.6278C130.321 71.6278 130.707 71.719 131.029 71.9013C131.351 72.0812 131.598 72.3191 131.771 72.6151C131.944 72.911 132.031 73.2306 132.031 73.5739C132.031 73.9834 131.923 74.3326 131.707 74.6214C131.494 74.9103 131.204 75.1103 130.837 75.2216V75.2784C131.297 75.3542 131.655 75.5495 131.913 75.8643C132.171 76.1768 132.3 76.5639 132.3 77.0256C132.3 77.4209 132.193 77.776 131.977 78.0909C131.764 78.4034 131.473 78.6496 131.104 78.8295C130.734 79.0095 130.314 79.0994 129.843 79.0994Z" fill="#00D995" fill-opacity="0.48"/>
<path d="M20.0682 71.6278C20.3665 71.6302 20.6648 71.687 20.9631 71.7983C21.2614 71.9096 21.5336 72.0942 21.7798 72.3523C22.026 72.608 22.2237 72.9571 22.3729 73.3999C22.522 73.8426 22.5966 74.3977 22.5966 75.0653C22.5966 75.7116 22.535 76.2857 22.4119 76.7876C22.2912 77.2872 22.116 77.7086 21.8864 78.0518C21.6591 78.3951 21.3821 78.6555 21.0554 78.8331C20.7311 79.0107 20.3641 79.0994 19.9545 79.0994C19.5473 79.0994 19.1839 79.0189 18.8643 78.858C18.5471 78.6946 18.2867 78.4685 18.0831 78.1797C17.8819 77.8885 17.7528 77.5511 17.696 77.1676H18.5625C18.6406 77.5014 18.7957 77.7772 19.0277 77.995C19.2621 78.2105 19.571 78.3182 19.9545 78.3182C20.5156 78.3182 20.9583 78.0732 21.2827 77.5831C21.6094 77.093 21.7727 76.4006 21.7727 75.5057H21.7159C21.5833 75.7045 21.4259 75.8762 21.2436 76.0206C21.0613 76.165 20.8589 76.2763 20.6364 76.3544C20.4138 76.4325 20.1771 76.4716 19.9261 76.4716C19.5095 76.4716 19.1271 76.3686 18.7791 76.1626C18.4335 75.9543 18.1565 75.669 17.9482 75.3068C17.7422 74.9422 17.6392 74.5256 17.6392 74.0568C17.6392 73.6117 17.7386 73.2045 17.9375 72.8352C18.1387 72.4635 18.4205 72.1676 18.7827 71.9474C19.1473 71.7273 19.5758 71.6207 20.0682 71.6278ZM20.0682 72.4091C19.7699 72.4091 19.5012 72.4837 19.2621 72.6328C19.0253 72.7796 18.8371 72.9785 18.6974 73.2294C18.5601 73.478 18.4915 73.7538 18.4915 74.0568C18.4915 74.3598 18.5578 74.6357 18.6903 74.8842C18.8253 75.1304 19.0088 75.3269 19.2408 75.4737C19.4751 75.6181 19.7415 75.6903 20.0398 75.6903C20.2647 75.6903 20.4742 75.6465 20.6683 75.5589C20.8625 75.469 21.0317 75.3471 21.1761 75.1932C21.3229 75.0369 21.4377 74.8606 21.5206 74.6641C21.6035 74.4652 21.6449 74.258 21.6449 74.0426C21.6449 73.7585 21.5762 73.4922 21.4389 73.2436C21.304 72.995 21.117 72.7938 20.8778 72.6399C20.6411 72.486 20.3712 72.4091 20.0682 72.4091Z" fill="#00D995" fill-opacity="0.48"/>
</g>
<defs>
<clipPath id="clip0_1_1180">
<rect width="150" height="150" fill="white"/>
</clipPath>
</defs>
</svg>
