<svg width="280" height="259" viewBox="0 0 280 259" fill="none" xmlns="http://www.w3.org/2000/svg">
<g opacity="0.4">
<path d="M191.67 139.092V116.491L211.45 105.191L231.22 116.491V139.092L211.45 150.392L191.67 139.092Z" fill="url(#paint0_radial_1_549)" fill-opacity="0.08"/>
<path d="M233.82 139.092V116.491L253.6 105.191L273.37 116.491V139.092L253.6 150.392L233.82 139.092Z" fill="url(#paint1_radial_1_549)" fill-opacity="0.08"/>
<path d="M44.3198 103.017V80.4169L64.0999 69.1169L83.8699 80.4169V103.017L64.0999 114.317L44.3198 103.017Z" fill="url(#paint2_radial_1_549)" fill-opacity="0.08"/>
<path d="M128.61 103.017V80.4169L148.38 69.1169L168.16 80.4169V103.017L148.38 114.317L128.61 103.017Z" fill="url(#paint3_radial_1_549)" fill-opacity="0.08"/>
<path d="M170.78 103.017V80.4169L190.56 69.1169L210.33 80.4169V103.017L190.56 114.317L170.78 103.017Z" fill="url(#paint4_radial_1_549)" fill-opacity="0.08"/>
<path d="M-19.1099 66.996V44.396L0.670166 33.095L20.4401 44.396V66.996L0.670166 78.296L-19.1099 66.996Z" fill="url(#paint5_radial_1_549)" fill-opacity="0.08"/>
<path d="M191.67 66.996V44.396L211.45 33.095L231.22 44.396V66.996L211.45 78.296L191.67 66.996Z" fill="url(#paint6_radial_1_549)" fill-opacity="0.08"/>
<path d="M275.96 66.996V44.396L295.74 33.095L315.51 44.396V66.996L295.74 78.296L275.96 66.996Z" fill="url(#paint7_radial_1_549)" fill-opacity="0.08"/>
<path d="M128.61 31.2201V8.62007L148.38 -2.67993L168.16 8.62007V31.2201L148.38 42.5211L128.61 31.2201Z" fill="url(#paint8_radial_1_549)" fill-opacity="0.08"/>
<path d="M107.78 210.617V188.017L127.56 176.717L147.33 188.017V210.617L127.56 221.917L107.78 210.617Z" fill="url(#paint9_radial_1_549)" fill-opacity="0.08"/>
<path d="M234.25 210.617V188.017L254.03 176.717L273.8 188.017V210.617L254.03 221.917L234.25 210.617Z" fill="url(#paint10_radial_1_549)" fill-opacity="0.08"/>
<path d="M107.42 -5.05508V-27.6551L127.2 -38.9551L146.97 -27.6551V-5.05508L127.2 6.24492L107.42 -5.05508Z" fill="url(#paint11_radial_1_549)" fill-opacity="0.08"/>
<path d="M233.87 -5.05508V-27.6551L253.65 -38.9551L273.43 -27.6551V-5.05508L253.65 6.24492L233.87 -5.05508Z" fill="url(#paint12_radial_1_549)" fill-opacity="0.08"/>
<path d="M44.3198 174.728V152.128L64.0999 140.828L83.8699 152.128V174.728L64.0999 186.028L44.3198 174.728Z" fill="url(#paint13_radial_1_549)" fill-opacity="0.06"/>
<path d="M86.46 174.728V152.128L106.24 140.828L126.01 152.128V174.728L106.24 186.028L86.46 174.728Z" fill="url(#paint14_radial_1_549)" fill-opacity="0.06"/>
<path d="M128.61 174.728V152.128L148.38 140.828L168.16 152.128V174.728L148.38 186.028L128.61 174.728Z" fill="url(#paint15_radial_1_549)" fill-opacity="0.06"/>
<path d="M23.0303 139.092V116.491L42.8103 105.191L62.5802 116.491V139.092L42.8103 150.392L23.0303 139.092Z" fill="url(#paint16_radial_1_549)" fill-opacity="0.06"/>
<path d="M149.5 139.092V116.491L169.28 105.191L189.05 116.491V139.092L169.28 150.392L149.5 139.092Z" fill="url(#paint17_radial_1_549)" fill-opacity="0.06"/>
<path d="M275.96 139.092V116.491L295.74 105.191L315.51 116.491V139.092L295.74 150.392L275.96 139.092Z" fill="url(#paint18_radial_1_549)" fill-opacity="0.06"/>
<path d="M212.93 103.017V80.4169L232.7 69.1169L252.48 80.4169V103.017L232.7 114.317L212.93 103.017Z" fill="url(#paint19_radial_1_549)" fill-opacity="0.06"/>
<path d="M255.07 103.017V80.4169L274.85 69.1169L294.62 80.4169V103.017L274.85 114.317L255.07 103.017Z" fill="url(#paint20_radial_1_549)" fill-opacity="0.06"/>
<path d="M86.8301 246.892V224.292L106.6 212.992L126.38 224.292V246.892L106.6 258.192L86.8301 246.892Z" fill="url(#paint21_radial_1_549)" fill-opacity="0.06"/>
<path d="M128.97 246.892V224.292L148.74 212.992L168.52 224.292V246.892L148.74 258.192L128.97 246.892Z" fill="url(#paint22_radial_1_549)" fill-opacity="0.06"/>
<path d="M171.15 246.892V224.292L190.92 212.992L210.7 224.292V246.892L190.92 258.192L171.15 246.892Z" fill="url(#paint23_radial_1_549)" fill-opacity="0.06"/>
<path d="M44.3198 31.2201V8.62007L64.0999 -2.67993L83.8699 8.62007V31.2201L64.0999 42.5211L44.3198 31.2201Z" fill="url(#paint24_radial_1_549)" fill-opacity="0.06"/>
<path d="M86.46 31.2201V8.62007L106.24 -2.67993L126.01 8.62007V31.2201L106.24 42.5211L86.46 31.2201Z" fill="url(#paint25_radial_1_549)" fill-opacity="0.06"/>
<path d="M170.78 31.2201V8.62007L190.56 -2.67993L210.33 8.62007V31.2201L190.56 42.5211L170.78 31.2201Z" fill="url(#paint26_radial_1_549)" fill-opacity="0.06"/>
<path d="M23.48 210.617V188.017L43.26 176.717L63.03 188.017V210.617L43.26 221.917L23.48 210.617Z" fill="url(#paint27_radial_1_549)" fill-opacity="0.06"/>
<path d="M65.6299 210.617V188.017L85.4099 176.717L105.18 188.017V210.617L85.4099 221.917L65.6299 210.617Z" fill="url(#paint28_radial_1_549)" fill-opacity="0.06"/>
<path d="M192.1 210.617V188.017L211.88 176.717L231.65 188.017V210.617L211.88 221.917L192.1 210.617Z" fill="url(#paint29_radial_1_549)" fill-opacity="0.06"/>
<path d="M191.73 -5.05508V-27.6551L211.51 -38.9551L231.28 -27.6551V-5.05508L211.51 6.24492L191.73 -5.05508Z" fill="url(#paint30_radial_1_549)" fill-opacity="0.06"/>
<path d="M276.03 -5.05508V-27.6551L295.81 -38.9551L315.58 -27.6551V-5.05508L295.81 6.24492L276.03 -5.05508Z" fill="url(#paint31_radial_1_549)" fill-opacity="0.06"/>
<path d="M2.14014 174.728V152.128L21.9202 140.828L41.6901 152.128V174.728L21.9202 186.028L2.14014 174.728Z" fill="url(#paint32_radial_1_549)" fill-opacity="0.06"/>
<path d="M170.78 174.728V152.128L190.56 140.828L210.33 152.128V174.728L190.56 186.028L170.78 174.728Z" fill="url(#paint33_radial_1_549)" fill-opacity="0.06"/>
<path d="M212.93 174.728V152.128L232.7 140.828L252.48 152.128V174.728L232.7 186.028L212.93 174.728Z" fill="url(#paint34_radial_1_549)" fill-opacity="0.06"/>
<path d="M255.07 174.728V152.128L274.85 140.828L294.62 152.128V174.728L274.85 186.028L255.07 174.728Z" fill="url(#paint35_radial_1_549)" fill-opacity="0.06"/>
<path d="M-19.1099 139.092V116.491L0.670166 105.191L20.4401 116.491V139.092L0.670166 150.392L-19.1099 139.092Z" fill="url(#paint36_radial_1_549)" fill-opacity="0.06"/>
<path d="M65.2002 139.092V116.491L84.9802 105.191L104.75 116.491V139.092L84.9802 150.392L65.2002 139.092Z" fill="url(#paint37_radial_1_549)" fill-opacity="0.06"/>
<path d="M107.35 139.092V116.491L127.13 105.191L146.9 116.491V139.092L127.13 150.392L107.35 139.092Z" fill="url(#paint38_radial_1_549)" fill-opacity="0.06"/>
<path d="M2.14014 103.017V80.4169L21.9202 69.1169L41.6901 80.4169V103.017L21.9202 114.317L2.14014 103.017Z" fill="url(#paint39_radial_1_549)" fill-opacity="0.06"/>
<path d="M23.0303 66.996V44.396L42.8103 33.095L62.5802 44.396V66.996L42.8103 78.296L23.0303 66.996Z" fill="url(#paint40_radial_1_549)" fill-opacity="0.06"/>
<path d="M65.2002 66.996V44.396L84.9802 33.095L104.75 44.396V66.996L84.9802 78.296L65.2002 66.996Z" fill="url(#paint41_radial_1_549)" fill-opacity="0.06"/>
<path d="M107.35 66.996V44.396L127.13 33.095L146.9 44.396V66.996L127.13 78.296L107.35 66.996Z" fill="url(#paint42_radial_1_549)" fill-opacity="0.06"/>
<path d="M149.5 66.996V44.396L169.28 33.095L189.05 44.396V66.996L169.28 78.296L149.5 66.996Z" fill="url(#paint43_radial_1_549)" fill-opacity="0.06"/>
<path d="M233.82 66.996V44.396L253.6 33.095L273.37 44.396V66.996L253.6 78.296L233.82 66.996Z" fill="url(#paint44_radial_1_549)" fill-opacity="0.06"/>
<path d="M2.52002 246.892V224.292L22.29 212.992L42.0699 224.292V246.892L22.29 258.192L2.52002 246.892Z" fill="url(#paint45_radial_1_549)" fill-opacity="0.06"/>
<path d="M44.6802 246.892V224.292L64.4501 212.992L84.2301 224.292V246.892L64.4501 258.192L44.6802 246.892Z" fill="url(#paint46_radial_1_549)" fill-opacity="0.06"/>
<path d="M213.29 246.892V224.292L233.06 212.992L252.84 224.292V246.892L233.06 258.192L213.29 246.892Z" fill="url(#paint47_radial_1_549)" fill-opacity="0.06"/>
<path d="M255.44 246.892V224.292L275.21 212.992L294.99 224.292V246.892L275.21 258.192L255.44 246.892Z" fill="url(#paint48_radial_1_549)" fill-opacity="0.06"/>
<path d="M2.14014 31.2201V8.62007L21.9202 -2.67993L41.6901 8.62007V31.2201L21.9202 42.5211L2.14014 31.2201Z" fill="url(#paint49_radial_1_549)" fill-opacity="0.06"/>
<path d="M212.93 31.2201V8.62007L232.7 -2.67993L252.48 8.62007V31.2201L232.7 42.5211L212.93 31.2201Z" fill="url(#paint50_radial_1_549)" fill-opacity="0.06"/>
<path d="M255.07 31.2201V8.62007L274.85 -2.67993L294.62 8.62007V31.2201L274.85 42.5211L255.07 31.2201Z" fill="url(#paint51_radial_1_549)" fill-opacity="0.06"/>
<path d="M-18.6802 210.617V188.017L1.09985 176.717L20.8699 188.017V210.617L1.09985 221.917L-18.6802 210.617Z" fill="url(#paint52_radial_1_549)" fill-opacity="0.06"/>
<path d="M149.95 210.617V188.017L169.73 176.717L189.5 188.017V210.617L169.73 221.917L149.95 210.617Z" fill="url(#paint53_radial_1_549)" fill-opacity="0.06"/>
<path d="M276.39 210.617V188.017L296.17 176.716L315.94 188.017V210.617L296.17 221.917L276.39 210.617Z" fill="url(#paint54_radial_1_549)" fill-opacity="0.06"/>
<path d="M-19.0498 -5.05508V-27.6551L0.730225 -38.9551L20.5002 -27.6551V-5.05508L0.730225 6.24492L-19.0498 -5.05508Z" fill="url(#paint55_radial_1_549)" fill-opacity="0.06"/>
<path d="M23.1201 -5.05508V-27.6551L42.8901 -38.9551L62.6702 -27.6551V-5.05508L42.8901 6.24492L23.1201 -5.05508Z" fill="url(#paint56_radial_1_549)" fill-opacity="0.06"/>
<path d="M65.27 -5.05508V-27.6551L85.04 -38.9551L104.82 -27.6551V-5.05508L85.04 6.24492L65.27 -5.05508Z" fill="url(#paint57_radial_1_549)" fill-opacity="0.06"/>
<path d="M149.58 -5.05508V-27.6551L169.35 -38.9551L189.13 -27.6551V-5.05508L169.35 6.24492L149.58 -5.05508Z" fill="url(#paint58_radial_1_549)" fill-opacity="0.06"/>
<path d="M86.46 103.017V80.4169L106.24 69.1169L126.01 80.4169V103.017L106.24 114.317L86.46 103.017Z" fill="url(#paint59_radial_1_549)" fill-opacity="0.06"/>
<g opacity="0.12">
<path d="M22.7002 -6.1V-28.7L42.4702 -40L62.2502 -28.7V-6.1L42.4702 5.2L22.7002 -6.1Z" fill="#00D995" fill-opacity="0.16"/>
<path d="M22.7002 -6.1V-28.7L42.4702 -40L62.2502 -28.7V-6.1L42.4702 5.2L22.7002 -6.1Z" stroke="url(#paint60_radial_1_549)" stroke-linecap="round"/>
<path d="M22.7002 -6.1V-28.7L42.4702 -40L62.2502 -28.7V-6.1L42.4702 5.2L22.7002 -6.1Z" stroke="url(#paint61_radial_1_549)" stroke-opacity="0.49" stroke-linecap="round"/>
</g>
<g opacity="0.26">
<path d="M43.8799 102.951V80.351L63.6499 69.051L83.4299 80.351V102.951L63.6499 114.251L43.8799 102.951Z" fill="#00D995" fill-opacity="0.16"/>
<path d="M43.8799 102.951V80.351L63.6499 69.051L83.4299 80.351V102.951L63.6499 114.251L43.8799 102.951Z" stroke="url(#paint62_radial_1_549)" stroke-linecap="round"/>
<path d="M43.8799 102.951V80.351L63.6499 69.051L83.4299 80.351V102.951L63.6499 114.251L43.8799 102.951Z" stroke="url(#paint63_radial_1_549)" stroke-opacity="0.49" stroke-linecap="round"/>
</g>
<g opacity="0.26">
<path d="M86.04 101.959V79.3581L105.81 68.0581L125.59 79.3581V101.959L105.81 113.259L86.04 101.959Z" fill="#00D995" fill-opacity="0.16"/>
<path d="M86.04 101.959V79.3581L105.81 68.0581L125.59 79.3581V101.959L105.81 113.259L86.04 101.959Z" stroke="url(#paint64_radial_1_549)" stroke-linecap="round"/>
<path d="M86.04 101.959V79.3581L105.81 68.0581L125.59 79.3581V101.959L105.81 113.259L86.04 101.959Z" stroke="url(#paint65_radial_1_549)" stroke-opacity="0.49" stroke-linecap="round"/>
</g>
<g opacity="0.26">
<path d="M65.6499 138.91V116.31L85.4199 105.009L105.2 116.31V138.91L85.4199 150.21L65.6499 138.91Z" fill="#00D995" fill-opacity="0.16"/>
<path d="M65.6499 138.91V116.31L85.4199 105.009L105.2 116.31V138.91L85.4199 150.21L65.6499 138.91Z" stroke="url(#paint66_radial_1_549)" stroke-linecap="round"/>
<path d="M65.6499 138.91V116.31L85.4199 105.009L105.2 116.31V138.91L85.4199 150.21L65.6499 138.91Z" stroke="url(#paint67_radial_1_549)" stroke-opacity="0.49" stroke-linecap="round"/>
</g>
</g>
<defs>
<radialGradient id="paint0_radial_1_549" cx="0" cy="0" r="1" gradientUnits="userSpaceOnUse" gradientTransform="translate(216 106.692) rotate(-123.465) scale(70.7248 62.2675)">
<stop stop-color="#00D995" stop-opacity="0.32"/>
<stop offset="1" stop-color="#00D995" stop-opacity="0"/>
</radialGradient>
<radialGradient id="paint1_radial_1_549" cx="0" cy="0" r="1" gradientUnits="userSpaceOnUse" gradientTransform="translate(216 106.692) rotate(-123.465) scale(70.7248 62.2677)">
<stop stop-color="#00D995"/>
<stop offset="1" stop-color="#00D995" stop-opacity="0"/>
</radialGradient>
<radialGradient id="paint2_radial_1_549" cx="0" cy="0" r="1" gradientUnits="userSpaceOnUse" gradientTransform="translate(216 106.692) rotate(-123.465) scale(70.7248 62.2677)">
<stop stop-color="#00D995"/>
<stop offset="1" stop-color="#00D995" stop-opacity="0"/>
</radialGradient>
<radialGradient id="paint3_radial_1_549" cx="0" cy="0" r="1" gradientUnits="userSpaceOnUse" gradientTransform="translate(216 106.692) rotate(-123.465) scale(70.7248 62.2677)">
<stop stop-color="#00D995"/>
<stop offset="1" stop-color="#00D995" stop-opacity="0"/>
</radialGradient>
<radialGradient id="paint4_radial_1_549" cx="0" cy="0" r="1" gradientUnits="userSpaceOnUse" gradientTransform="translate(216 106.692) rotate(-123.465) scale(70.7248 62.2675)">
<stop stop-color="#00D995"/>
<stop offset="1" stop-color="#00D995" stop-opacity="0"/>
</radialGradient>
<radialGradient id="paint5_radial_1_549" cx="0" cy="0" r="1" gradientUnits="userSpaceOnUse" gradientTransform="translate(216 106.692) rotate(-123.465) scale(70.7248 62.2675)">
<stop stop-color="#00D995"/>
<stop offset="1" stop-color="#00D995" stop-opacity="0"/>
</radialGradient>
<radialGradient id="paint6_radial_1_549" cx="0" cy="0" r="1" gradientUnits="userSpaceOnUse" gradientTransform="translate(216 106.692) rotate(-123.465) scale(70.7248 62.2675)">
<stop stop-color="#00D995"/>
<stop offset="1" stop-color="#00D995" stop-opacity="0"/>
</radialGradient>
<radialGradient id="paint7_radial_1_549" cx="0" cy="0" r="1" gradientUnits="userSpaceOnUse" gradientTransform="translate(216 106.692) rotate(-123.465) scale(70.7248 62.2677)">
<stop stop-color="#00D995"/>
<stop offset="1" stop-color="#00D995" stop-opacity="0"/>
</radialGradient>
<radialGradient id="paint8_radial_1_549" cx="0" cy="0" r="1" gradientUnits="userSpaceOnUse" gradientTransform="translate(216 106.692) rotate(-123.465) scale(70.7248 62.2677)">
<stop stop-color="#00D995"/>
<stop offset="1" stop-color="#00D995" stop-opacity="0"/>
</radialGradient>
<radialGradient id="paint9_radial_1_549" cx="0" cy="0" r="1" gradientUnits="userSpaceOnUse" gradientTransform="translate(216 106.692) rotate(-123.465) scale(70.7248 62.2675)">
<stop stop-color="#00D995"/>
<stop offset="1" stop-color="#00D995" stop-opacity="0"/>
</radialGradient>
<radialGradient id="paint10_radial_1_549" cx="0" cy="0" r="1" gradientUnits="userSpaceOnUse" gradientTransform="translate(216 106.692) rotate(-123.465) scale(70.7248 62.2677)">
<stop stop-color="#00D995"/>
<stop offset="0.53" stop-color="#00D995" stop-opacity="0"/>
</radialGradient>
<radialGradient id="paint11_radial_1_549" cx="0" cy="0" r="1" gradientUnits="userSpaceOnUse" gradientTransform="translate(216 106.692) rotate(-123.465) scale(70.7248 62.2675)">
<stop stop-color="#00D995"/>
<stop offset="1" stop-color="#00D995" stop-opacity="0"/>
</radialGradient>
<radialGradient id="paint12_radial_1_549" cx="0" cy="0" r="1" gradientUnits="userSpaceOnUse" gradientTransform="translate(216 106.692) rotate(-123.465) scale(70.7248 62.2677)">
<stop stop-color="#00D995"/>
<stop offset="1" stop-color="#00D995" stop-opacity="0"/>
</radialGradient>
<radialGradient id="paint13_radial_1_549" cx="0" cy="0" r="1" gradientUnits="userSpaceOnUse" gradientTransform="translate(59.9998 88.6919) rotate(-61.728) scale(67.5592 76.1005)">
<stop stop-color="#00D995"/>
<stop offset="1" stop-color="#00D995" stop-opacity="0"/>
</radialGradient>
<radialGradient id="paint14_radial_1_549" cx="0" cy="0" r="1" gradientUnits="userSpaceOnUse" gradientTransform="translate(59.9999 88.6919) rotate(-61.728) scale(67.5592 76.1005)">
<stop stop-color="#00D995"/>
<stop offset="1" stop-color="#00D995" stop-opacity="0"/>
</radialGradient>
<radialGradient id="paint15_radial_1_549" cx="0" cy="0" r="1" gradientUnits="userSpaceOnUse" gradientTransform="translate(59.9998 88.6919) rotate(-61.728) scale(67.5592 76.1005)">
<stop stop-color="#00D995"/>
<stop offset="1" stop-color="#00D995" stop-opacity="0"/>
</radialGradient>
<radialGradient id="paint16_radial_1_549" cx="0" cy="0" r="1" gradientUnits="userSpaceOnUse" gradientTransform="translate(60.0002 88.6919) rotate(-61.728) scale(67.5592 76.1003)">
<stop stop-color="#00D995"/>
<stop offset="1" stop-color="#00D995" stop-opacity="0"/>
</radialGradient>
<radialGradient id="paint17_radial_1_549" cx="0" cy="0" r="1" gradientUnits="userSpaceOnUse" gradientTransform="translate(59.9999 88.6919) rotate(-61.728) scale(67.5592 76.1005)">
<stop stop-color="#00D995"/>
<stop offset="1" stop-color="#00D995" stop-opacity="0"/>
</radialGradient>
<radialGradient id="paint18_radial_1_549" cx="0" cy="0" r="1" gradientUnits="userSpaceOnUse" gradientTransform="translate(59.9997 88.6919) rotate(-61.728) scale(67.5592 76.1005)">
<stop stop-color="#00D995"/>
<stop offset="1" stop-color="#00D995" stop-opacity="0"/>
</radialGradient>
<radialGradient id="paint19_radial_1_549" cx="0" cy="0" r="1" gradientUnits="userSpaceOnUse" gradientTransform="translate(60.0005 88.6919) rotate(-61.7281) scale(67.5592 76.1003)">
<stop stop-color="#00D995"/>
<stop offset="1" stop-color="#00D995" stop-opacity="0"/>
</radialGradient>
<radialGradient id="paint20_radial_1_549" cx="0" cy="0" r="1" gradientUnits="userSpaceOnUse" gradientTransform="translate(59.9996 88.692) rotate(-61.728) scale(67.5592 76.1005)">
<stop stop-color="#00D995"/>
<stop offset="1" stop-color="#00D995" stop-opacity="0"/>
</radialGradient>
<radialGradient id="paint21_radial_1_549" cx="0" cy="0" r="1" gradientUnits="userSpaceOnUse" gradientTransform="translate(60 88.6919) rotate(-61.728) scale(67.5592 76.1005)">
<stop stop-color="#00D995"/>
<stop offset="1" stop-color="#00D995" stop-opacity="0"/>
</radialGradient>
<radialGradient id="paint22_radial_1_549" cx="0" cy="0" r="1" gradientUnits="userSpaceOnUse" gradientTransform="translate(59.9996 88.6919) rotate(-61.728) scale(67.5592 76.1005)">
<stop stop-color="#00D995"/>
<stop offset="1" stop-color="#00D995" stop-opacity="0"/>
</radialGradient>
<radialGradient id="paint23_radial_1_549" cx="0" cy="0" r="1" gradientUnits="userSpaceOnUse" gradientTransform="translate(60.0001 88.6919) rotate(-61.7281) scale(67.5592 76.1003)">
<stop stop-color="#00D995"/>
<stop offset="1" stop-color="#00D995" stop-opacity="0"/>
</radialGradient>
<radialGradient id="paint24_radial_1_549" cx="0" cy="0" r="1" gradientUnits="userSpaceOnUse" gradientTransform="translate(59.9998 88.6921) rotate(-61.728) scale(67.5592 76.1005)">
<stop stop-color="#00D995"/>
<stop offset="1" stop-color="#00D995" stop-opacity="0"/>
</radialGradient>
<radialGradient id="paint25_radial_1_549" cx="0" cy="0" r="1" gradientUnits="userSpaceOnUse" gradientTransform="translate(59.9999 88.6921) rotate(-61.728) scale(67.5592 76.1005)">
<stop stop-color="#00D995"/>
<stop offset="1" stop-color="#00D995" stop-opacity="0"/>
</radialGradient>
<radialGradient id="paint26_radial_1_549" cx="0" cy="0" r="1" gradientUnits="userSpaceOnUse" gradientTransform="translate(60.0005 88.6921) rotate(-61.728) scale(67.5592 76.1003)">
<stop stop-color="#00D995"/>
<stop offset="1" stop-color="#00D995" stop-opacity="0"/>
</radialGradient>
<radialGradient id="paint27_radial_1_549" cx="0" cy="0" r="1" gradientUnits="userSpaceOnUse" gradientTransform="translate(60 88.692) rotate(-61.728) scale(67.5592 76.1005)">
<stop stop-color="#00D995"/>
<stop offset="1" stop-color="#00D995" stop-opacity="0"/>
</radialGradient>
<radialGradient id="paint28_radial_1_549" cx="0" cy="0" r="1" gradientUnits="userSpaceOnUse" gradientTransform="translate(59.9999 88.692) rotate(-61.728) scale(67.5592 76.1005)">
<stop stop-color="#00D995"/>
<stop offset="1" stop-color="#00D995" stop-opacity="0"/>
</radialGradient>
<radialGradient id="paint29_radial_1_549" cx="0" cy="0" r="1" gradientUnits="userSpaceOnUse" gradientTransform="translate(59.9999 88.692) rotate(-61.728) scale(67.5592 76.1005)">
<stop stop-color="#00D995"/>
<stop offset="1" stop-color="#00D995" stop-opacity="0"/>
</radialGradient>
<radialGradient id="paint30_radial_1_549" cx="0" cy="0" r="1" gradientUnits="userSpaceOnUse" gradientTransform="translate(59.9998 88.6919) rotate(-61.728) scale(67.5592 76.1005)">
<stop stop-color="#00D995"/>
<stop offset="1" stop-color="#00D995" stop-opacity="0"/>
</radialGradient>
<radialGradient id="paint31_radial_1_549" cx="0" cy="0" r="1" gradientUnits="userSpaceOnUse" gradientTransform="translate(60.0007 88.6919) rotate(-61.728) scale(67.5592 76.1003)">
<stop stop-color="#00D995"/>
<stop offset="1" stop-color="#00D995" stop-opacity="0"/>
</radialGradient>
<radialGradient id="paint32_radial_1_549" cx="0" cy="0" r="1" gradientUnits="userSpaceOnUse" gradientTransform="translate(37.5001 80.6919) rotate(131.121) scale(83.63 119.209)">
<stop stop-color="#00D995"/>
<stop offset="1" stop-color="#00D995" stop-opacity="0"/>
</radialGradient>
<radialGradient id="paint33_radial_1_549" cx="0" cy="0" r="1" gradientUnits="userSpaceOnUse" gradientTransform="translate(37.5005 80.6919) rotate(131.121) scale(83.63 119.209)">
<stop stop-color="#00D995"/>
<stop offset="1" stop-color="#00D995" stop-opacity="0"/>
</radialGradient>
<radialGradient id="paint34_radial_1_549" cx="0" cy="0" r="1" gradientUnits="userSpaceOnUse" gradientTransform="translate(37.5005 80.6919) rotate(131.121) scale(83.63 119.209)">
<stop stop-color="#00D995"/>
<stop offset="1" stop-color="#00D995" stop-opacity="0"/>
</radialGradient>
<radialGradient id="paint35_radial_1_549" cx="0" cy="0" r="1" gradientUnits="userSpaceOnUse" gradientTransform="translate(37.4996 80.6919) rotate(131.121) scale(83.6302 119.209)">
<stop stop-color="#00D995"/>
<stop offset="1" stop-color="#00D995" stop-opacity="0"/>
</radialGradient>
<radialGradient id="paint36_radial_1_549" cx="0" cy="0" r="1" gradientUnits="userSpaceOnUse" gradientTransform="translate(37.5 80.6919) rotate(131.121) scale(83.63 119.209)">
<stop stop-color="#00D995"/>
<stop offset="1" stop-color="#00D995" stop-opacity="0"/>
</radialGradient>
<radialGradient id="paint37_radial_1_549" cx="0" cy="0" r="1" gradientUnits="userSpaceOnUse" gradientTransform="translate(37.5002 80.6919) rotate(131.121) scale(83.6301 119.209)">
<stop stop-color="#00D995"/>
<stop offset="1" stop-color="#00D995" stop-opacity="0"/>
</radialGradient>
<radialGradient id="paint38_radial_1_549" cx="0" cy="0" r="1" gradientUnits="userSpaceOnUse" gradientTransform="translate(37.5 80.6919) rotate(131.121) scale(83.6301 119.209)">
<stop stop-color="#00D995"/>
<stop offset="1" stop-color="#00D995" stop-opacity="0"/>
</radialGradient>
<radialGradient id="paint39_radial_1_549" cx="0" cy="0" r="1" gradientUnits="userSpaceOnUse" gradientTransform="translate(37.5001 80.6919) rotate(131.121) scale(83.63 119.209)">
<stop stop-color="#00D995"/>
<stop offset="1" stop-color="#00D995" stop-opacity="0"/>
</radialGradient>
<radialGradient id="paint40_radial_1_549" cx="0" cy="0" r="1" gradientUnits="userSpaceOnUse" gradientTransform="translate(37.5003 80.692) rotate(131.121) scale(83.63 119.209)">
<stop stop-color="#00D995"/>
<stop offset="1" stop-color="#00D995" stop-opacity="0"/>
</radialGradient>
<radialGradient id="paint41_radial_1_549" cx="0" cy="0" r="1" gradientUnits="userSpaceOnUse" gradientTransform="translate(37.5002 80.692) rotate(131.121) scale(83.6301 119.209)">
<stop stop-color="#00D995"/>
<stop offset="1" stop-color="#00D995" stop-opacity="0"/>
</radialGradient>
<radialGradient id="paint42_radial_1_549" cx="0" cy="0" r="1" gradientUnits="userSpaceOnUse" gradientTransform="translate(37.5 80.692) rotate(131.121) scale(83.6301 119.209)">
<stop stop-color="#00D995"/>
<stop offset="1" stop-color="#00D995" stop-opacity="0"/>
</radialGradient>
<radialGradient id="paint43_radial_1_549" cx="0" cy="0" r="1" gradientUnits="userSpaceOnUse" gradientTransform="translate(37.4999 80.692) rotate(131.121) scale(83.6301 119.209)">
<stop stop-color="#00D995"/>
<stop offset="1" stop-color="#00D995" stop-opacity="0"/>
</radialGradient>
<radialGradient id="paint44_radial_1_549" cx="0" cy="0" r="1" gradientUnits="userSpaceOnUse" gradientTransform="translate(37.4996 80.692) rotate(131.121) scale(83.6301 119.209)">
<stop stop-color="#00D995"/>
<stop offset="1" stop-color="#00D995" stop-opacity="0"/>
</radialGradient>
<radialGradient id="paint45_radial_1_549" cx="0" cy="0" r="1" gradientUnits="userSpaceOnUse" gradientTransform="translate(37.5 80.6919) rotate(131.121) scale(83.63 119.209)">
<stop stop-color="#00D995"/>
<stop offset="1" stop-color="#00D995" stop-opacity="0"/>
</radialGradient>
<radialGradient id="paint46_radial_1_549" cx="0" cy="0" r="1" gradientUnits="userSpaceOnUse" gradientTransform="translate(37.5002 80.6919) rotate(131.121) scale(83.63 119.209)">
<stop stop-color="#00D995"/>
<stop offset="1" stop-color="#00D995" stop-opacity="0"/>
</radialGradient>
<radialGradient id="paint47_radial_1_549" cx="0" cy="0" r="1" gradientUnits="userSpaceOnUse" gradientTransform="translate(37.5004 80.6919) rotate(131.121) scale(83.63 119.209)">
<stop stop-color="#00D995"/>
<stop offset="1" stop-color="#00D995" stop-opacity="0"/>
</radialGradient>
<radialGradient id="paint48_radial_1_549" cx="0" cy="0" r="1" gradientUnits="userSpaceOnUse" gradientTransform="translate(37.4997 80.6919) rotate(131.121) scale(83.6302 119.209)">
<stop stop-color="#00D995"/>
<stop offset="1" stop-color="#00D995" stop-opacity="0"/>
</radialGradient>
<radialGradient id="paint49_radial_1_549" cx="0" cy="0" r="1" gradientUnits="userSpaceOnUse" gradientTransform="translate(37.5001 80.6921) rotate(131.121) scale(83.63 119.209)">
<stop stop-color="#00D995"/>
<stop offset="1" stop-color="#00D995" stop-opacity="0"/>
</radialGradient>
<radialGradient id="paint50_radial_1_549" cx="0" cy="0" r="1" gradientUnits="userSpaceOnUse" gradientTransform="translate(37.5005 80.6921) rotate(131.121) scale(83.63 119.209)">
<stop stop-color="#00D995"/>
<stop offset="1" stop-color="#00D995" stop-opacity="0"/>
</radialGradient>
<radialGradient id="paint51_radial_1_549" cx="0" cy="0" r="1" gradientUnits="userSpaceOnUse" gradientTransform="translate(37.4996 80.6921) rotate(131.121) scale(83.6301 119.209)">
<stop stop-color="#00D995"/>
<stop offset="1" stop-color="#00D995" stop-opacity="0"/>
</radialGradient>
<radialGradient id="paint52_radial_1_549" cx="0" cy="0" r="1" gradientUnits="userSpaceOnUse" gradientTransform="translate(37.4999 80.692) rotate(131.121) scale(83.6302 119.209)">
<stop stop-color="#00D995"/>
<stop offset="1" stop-color="#00D995" stop-opacity="0"/>
</radialGradient>
<radialGradient id="paint53_radial_1_549" cx="0" cy="0" r="1" gradientUnits="userSpaceOnUse" gradientTransform="translate(37.5001 80.692) rotate(131.121) scale(83.6302 119.209)">
<stop stop-color="#00D995"/>
<stop offset="1" stop-color="#00D995" stop-opacity="0"/>
</radialGradient>
<radialGradient id="paint54_radial_1_549" cx="0" cy="0" r="1" gradientUnits="userSpaceOnUse" gradientTransform="translate(37.5006 80.692) rotate(131.121) scale(83.6301 119.209)">
<stop stop-color="#00D995"/>
<stop offset="1" stop-color="#00D995" stop-opacity="0"/>
</radialGradient>
<radialGradient id="paint55_radial_1_549" cx="0" cy="0" r="1" gradientUnits="userSpaceOnUse" gradientTransform="translate(37.5003 80.6919) rotate(131.121) scale(83.6301 119.209)">
<stop stop-color="#00D995"/>
<stop offset="1" stop-color="#00D995" stop-opacity="0"/>
</radialGradient>
<radialGradient id="paint56_radial_1_549" cx="0" cy="0" r="1" gradientUnits="userSpaceOnUse" gradientTransform="translate(37.5001 80.6919) rotate(131.121) scale(83.6301 119.209)">
<stop stop-color="#00D995"/>
<stop offset="1" stop-color="#00D995" stop-opacity="0"/>
</radialGradient>
<radialGradient id="paint57_radial_1_549" cx="0" cy="0" r="1" gradientUnits="userSpaceOnUse" gradientTransform="translate(37.5001 80.6919) rotate(131.121) scale(83.63 119.209)">
<stop stop-color="#00D995"/>
<stop offset="1" stop-color="#00D995" stop-opacity="0"/>
</radialGradient>
<radialGradient id="paint58_radial_1_549" cx="0" cy="0" r="1" gradientUnits="userSpaceOnUse" gradientTransform="translate(37.4999 80.6919) rotate(131.121) scale(83.6301 119.209)">
<stop stop-color="#00D995"/>
<stop offset="1" stop-color="#00D995" stop-opacity="0"/>
</radialGradient>
<radialGradient id="paint59_radial_1_549" cx="0" cy="0" r="1" gradientUnits="userSpaceOnUse" gradientTransform="translate(37.4999 80.6919) rotate(131.121) scale(83.6302 119.209)">
<stop stop-color="#00D995"/>
<stop offset="1" stop-color="#00D995" stop-opacity="0"/>
</radialGradient>
<radialGradient id="paint60_radial_1_549" cx="0" cy="0" r="1" gradientUnits="userSpaceOnUse" gradientTransform="translate(82 -30.501) rotate(146.198) scale(71.0019 79.522)">
<stop stop-color="#00D995"/>
<stop offset="1" stop-color="#00D995" stop-opacity="0"/>
</radialGradient>
<radialGradient id="paint61_radial_1_549" cx="0" cy="0" r="1" gradientUnits="userSpaceOnUse" gradientTransform="translate(-2.97343 -3.00383) rotate(-21.987) scale(38.1158 42.6897)">
<stop stop-color="#00D995" stop-opacity="0.32"/>
<stop offset="1" stop-color="#00D995" stop-opacity="0"/>
</radialGradient>
<radialGradient id="paint62_radial_1_549" cx="0" cy="0" r="1" gradientUnits="userSpaceOnUse" gradientTransform="translate(73.4944 54.9944) rotate(88.011) scale(72.0434 80.6887)">
<stop stop-color="#00D995" stop-opacity="0.32"/>
<stop offset="1" stop-opacity="0"/>
</radialGradient>
<radialGradient id="paint63_radial_1_549" cx="0" cy="0" r="1" gradientUnits="userSpaceOnUse" gradientTransform="translate(18.4999 120) rotate(-38.8563) scale(44.9805 50.3782)">
<stop stop-color="#00D995" stop-opacity="0.32"/>
<stop offset="1" stop-color="#00D995" stop-opacity="0"/>
</radialGradient>
<radialGradient id="paint64_radial_1_549" cx="0" cy="0" r="1" gradientUnits="userSpaceOnUse" gradientTransform="translate(83.68 102.788) rotate(-56.3422) scale(62.8193 70.3575)">
<stop stop-color="#29405C" stop-opacity="0"/>
<stop offset="1" stop-color="#00D995" stop-opacity="0.32"/>
</radialGradient>
<radialGradient id="paint65_radial_1_549" cx="0" cy="0" r="1" gradientUnits="userSpaceOnUse" gradientTransform="translate(62.5186 119.996) rotate(-41.358) scale(44.2092 49.5145)">
<stop stop-color="#00D995" stop-opacity="0.32"/>
<stop offset="1" stop-color="#00D995" stop-opacity="0"/>
</radialGradient>
<radialGradient id="paint66_radial_1_549" cx="0" cy="0" r="1" gradientUnits="userSpaceOnUse" gradientTransform="translate(113 110.999) rotate(127.875) scale(62.7096 70.2347)">
<stop stop-color="#00D995" stop-opacity="0.32"/>
<stop offset="1" stop-opacity="0"/>
</radialGradient>
<radialGradient id="paint67_radial_1_549" cx="0" cy="0" r="1" gradientUnits="userSpaceOnUse" gradientTransform="translate(46.9969 157.001) rotate(-45.9591) scale(40.7048 45.5894)">
<stop stop-color="#00D995" stop-opacity="0.32"/>
<stop offset="1" stop-color="#00D995" stop-opacity="0"/>
</radialGradient>
</defs>
</svg>
