<svg width="16" height="16" viewBox="0 0 16 16" fill="none" xmlns="http://www.w3.org/2000/svg">
<path fill-rule="evenodd" clip-rule="evenodd" d="M7.83332 14.9998C3.87528 14.9998 0.666656 11.7912 0.666656 7.83317C0.666656 3.87513 3.87528 0.666504 7.83332 0.666504C9.13786 0.666504 10.3624 1.01551 11.417 1.62558C11.8384 1.86932 12.5315 2.33036 13.1979 3.0742C12.6317 3.42324 12.0821 3.86268 11.5657 4.33722C10.7209 5.11336 9.92506 6.02028 9.24332 6.87637C8.56032 7.73417 7.98359 8.5513 7.57779 9.1535L7.51926 9.24064C7.12326 8.6903 6.71246 8.30737 6.3506 8.04417C6.08046 7.8477 5.84132 7.7207 5.66153 7.64084C5.57169 7.6009 5.4967 7.5727 5.44008 7.5535C5.41177 7.54397 5.38803 7.53657 5.3693 7.5311C5.35993 7.52837 5.35181 7.5261 5.345 7.52424L5.33576 7.52177L5.33188 7.52077L5.33013 7.5203L5.3293 7.5201C5.3293 7.5201 5.345 7.52424 5.3285 7.5199C4.97131 7.43064 4.60935 7.64777 4.52005 8.00497C4.43154 8.35904 4.64412 8.71777 4.9957 8.81104C4.998 8.8117 5.00351 8.81337 5.01203 8.8163C5.03224 8.82317 5.06923 8.83664 5.12002 8.85924C5.22148 8.9043 5.37817 8.98564 5.56636 9.1225C5.93956 9.3939 6.45231 9.89504 6.90386 10.7982C7.01246 11.0153 7.23046 11.1562 7.47299 11.1661C7.71552 11.176 7.94459 11.0528 8.07046 10.8453L8.07206 10.8426L8.07919 10.8309L8.10912 10.7825C8.13579 10.7394 8.17592 10.6753 8.22839 10.5928C8.33339 10.4276 8.48779 10.1891 8.68352 9.89857C9.07552 9.31677 9.63119 8.52977 10.2864 7.70697C10.9429 6.8825 11.6912 6.03252 12.4677 5.31907C12.9859 4.84304 13.4998 4.44352 13.9925 4.15168C14.3648 4.77352 14.6775 5.51768 14.8567 6.40037C14.9507 6.86377 15 7.34297 15 7.83317C15 11.7912 11.7914 14.9998 7.83332 14.9998Z" fill="#00D995"/>
</svg>
