<svg width="180" height="150" viewBox="0 0 180 150" fill="none" xmlns="http://www.w3.org/2000/svg">
<g filter="url(#filter0_b_1_1152)">
<path d="M0 86C0 80.4772 4.47715 76 10 76H170C175.523 76 180 80.4772 180 86V124C180 129.523 175.523 134 170 134H10C4.47716 134 0 129.523 0 124V86Z" fill="#00D995" fill-opacity="0.16"/>
</g>
<path d="M138 112C138 109.791 139.791 108 142 108H168C170.209 108 172 109.791 172 112V122C172 124.209 170.209 126 168 126H142C139.791 126 138 124.209 138 122V112Z" fill="#00D995"/>
<path d="M8 118C8 115.791 9.79086 114 12 114H32C34.2091 114 36 115.791 36 118V122C36 124.209 34.2091 126 32 126H12C9.79086 126 8 124.209 8 122V118Z" fill="#00D995" fill-opacity="0.16"/>
<path d="M38 118C38 115.791 39.7909 114 42 114H54C56.2091 114 58 115.791 58 118V122C58 124.209 56.2091 126 54 126H42C39.7909 126 38 124.209 38 122V118Z" fill="#00D995" fill-opacity="0.16"/>
<path d="M9.17898 98H8.25568L10.9261 90.7273H11.8352L14.5057 98H13.5824L11.4091 91.8778H11.3523L9.17898 98ZM9.51989 95.1591H13.2415V95.9403H9.51989V95.1591ZM19.3885 93.767L18.6357 93.9801C18.5883 93.8546 18.5185 93.7327 18.4261 93.6143C18.3362 93.4936 18.2131 93.3942 18.0568 93.3161C17.9006 93.2379 17.7005 93.1989 17.4567 93.1989C17.1229 93.1989 16.8447 93.2758 16.6222 93.4297C16.402 93.5812 16.2919 93.7741 16.2919 94.0085C16.2919 94.2169 16.3677 94.3814 16.5192 94.5021C16.6707 94.6229 16.9074 94.7235 17.2294 94.804L18.0391 95.0028C18.5268 95.1212 18.8902 95.3023 19.1293 95.5462C19.3684 95.7876 19.4879 96.099 19.4879 96.4801C19.4879 96.7926 19.398 97.072 19.218 97.3182C19.0405 97.5644 18.7919 97.7585 18.4723 97.9006C18.1527 98.0426 17.781 98.1136 17.3572 98.1136C16.8009 98.1136 16.3404 97.9929 15.9759 97.7514C15.6113 97.5099 15.3804 97.1572 15.2834 96.6932L16.0788 96.4943C16.1546 96.7879 16.2978 97.008 16.5085 97.1548C16.7216 97.3016 16.9998 97.375 17.343 97.375C17.7337 97.375 18.0438 97.2921 18.2734 97.1264C18.5054 96.9583 18.6214 96.7571 18.6214 96.5227C18.6214 96.3333 18.5552 96.1747 18.4226 96.0469C18.29 95.9167 18.0864 95.8196 17.8118 95.7557L16.9027 95.5426C16.4032 95.4242 16.0362 95.2408 15.8018 94.9922C15.5698 94.7412 15.4538 94.4276 15.4538 94.0511C15.4538 93.7434 15.5402 93.4711 15.7131 93.2344C15.8883 92.9976 16.1262 92.8118 16.4268 92.6768C16.7299 92.5419 17.0732 92.4744 17.4567 92.4744C17.9964 92.4744 18.4202 92.5928 18.728 92.8295C19.0381 93.0663 19.2583 93.3788 19.3885 93.767ZM21.5307 96.0114L21.5165 94.9744H21.687L24.0733 92.5455H25.1103L22.5676 95.1165H22.4966L21.5307 96.0114ZM20.7495 98V90.7273H21.5875V98H20.7495ZM24.2154 98L22.0847 95.3011L22.6813 94.7188L25.2807 98H24.2154ZM30.6065 98.1278C30.2609 98.1278 29.9472 98.0627 29.6655 97.9325C29.3838 97.8 29.16 97.6094 28.9943 97.3608C28.8286 97.1098 28.7457 96.8068 28.7457 96.4517C28.7457 96.1392 28.8073 95.8859 28.9304 95.6918C29.0535 95.4953 29.218 95.3414 29.424 95.2301C29.63 95.1188 29.8572 95.036 30.1058 94.9815C30.3568 94.9247 30.6089 94.8797 30.8622 94.8466C31.1937 94.804 31.4624 94.772 31.6683 94.7507C31.8767 94.727 32.0282 94.688 32.1229 94.6335C32.2199 94.5791 32.2685 94.4844 32.2685 94.3494V94.321C32.2685 93.9706 32.1726 93.6984 31.9808 93.5043C31.7914 93.3101 31.5038 93.2131 31.1179 93.2131C30.7178 93.2131 30.4041 93.3007 30.1768 93.4759C29.9496 93.651 29.7898 93.8381 29.6974 94.0369L28.902 93.7528C29.044 93.4214 29.2334 93.1634 29.4702 92.9787C29.7093 92.7917 29.9697 92.6615 30.2514 92.5881C30.5355 92.5123 30.8149 92.4744 31.0895 92.4744C31.2647 92.4744 31.4659 92.4957 31.6932 92.5384C31.9228 92.5786 32.1442 92.6626 32.3572 92.7905C32.5727 92.9183 32.7514 93.1113 32.8935 93.3693C33.0355 93.6274 33.1065 93.973 33.1065 94.4062V98H32.2685V97.2614H32.2259C32.169 97.3797 32.0743 97.5064 31.9418 97.6413C31.8092 97.7763 31.6328 97.8911 31.4126 97.9858C31.1925 98.0805 30.9238 98.1278 30.6065 98.1278ZM30.7344 97.375C31.0658 97.375 31.3452 97.3099 31.5724 97.1797C31.8021 97.0495 31.9749 96.8814 32.0909 96.6754C32.2093 96.4695 32.2685 96.2528 32.2685 96.0256V95.2585C32.233 95.3011 32.1548 95.3402 32.0341 95.3757C31.9157 95.4089 31.7784 95.4384 31.6222 95.4645C31.4683 95.4882 31.3179 95.5095 31.1712 95.5284C31.0268 95.545 30.9096 95.5592 30.8196 95.571C30.6018 95.5994 30.3982 95.6456 30.2088 95.7095C30.0218 95.7711 29.8703 95.8646 29.7543 95.9901C29.6406 96.1132 29.5838 96.2812 29.5838 96.4943C29.5838 96.7855 29.6915 97.0057 29.907 97.1548C30.1248 97.3016 30.4006 97.375 30.7344 97.375ZM35.4743 94.7188V98H34.6362V92.5455H35.4458V93.3977H35.5169C35.6447 93.1207 35.8388 92.8982 36.0993 92.7301C36.3597 92.5597 36.6958 92.4744 37.1078 92.4744C37.4771 92.4744 37.8002 92.5502 38.0772 92.7017C38.3542 92.8509 38.5697 93.0781 38.7235 93.3835C38.8774 93.6866 38.9544 94.0701 38.9544 94.5341V98H38.1163V94.5909C38.1163 94.1624 38.005 93.8286 37.7825 93.5895C37.56 93.348 37.2546 93.2273 36.8663 93.2273C36.5988 93.2273 36.3597 93.2853 36.149 93.4013C35.9406 93.5173 35.7761 93.6866 35.6554 93.9091C35.5346 94.1316 35.4743 94.4015 35.4743 94.7188ZM40.8303 100.045C40.6882 100.045 40.5616 100.034 40.4503 100.01C40.339 99.9886 40.2621 99.9673 40.2195 99.946L40.4325 99.2074C40.6361 99.2595 40.8161 99.2784 40.9723 99.2642C41.1286 99.25 41.267 99.1802 41.3878 99.0547C41.5109 98.9316 41.6233 98.7315 41.7251 98.4545L41.8814 98.0284L39.8643 92.5455H40.7734L42.2791 96.892H42.3359L43.8416 92.5455H44.7507L42.4354 98.7955C42.3312 99.0772 42.2022 99.3104 42.0483 99.495C41.8944 99.6821 41.7157 99.8205 41.5121 99.9105C41.3108 100 41.0836 100.045 40.8303 100.045ZM48.229 92.5455V93.2557H45.4023V92.5455H48.229ZM46.2262 91.2386H47.0643V96.4375C47.0643 96.6742 47.0986 96.8518 47.1673 96.9702C47.2383 97.0862 47.3282 97.1643 47.4371 97.2045C47.5484 97.2424 47.6656 97.2614 47.7887 97.2614C47.881 97.2614 47.9568 97.2566 48.016 97.2472C48.0752 97.2353 48.1225 97.2259 48.158 97.2188L48.3285 97.9716C48.2717 97.9929 48.1924 98.0142 48.0906 98.0355C47.9888 98.0592 47.8597 98.071 47.7035 98.071C47.4667 98.071 47.2347 98.0201 47.0075 97.9183C46.7826 97.8165 46.5955 97.6615 46.4464 97.4531C46.2996 97.2448 46.2262 96.982 46.2262 96.6648V91.2386ZM50.445 94.7188V98H49.6069V90.7273H50.445V93.3977H50.516C50.6438 93.116 50.8356 92.8923 51.0913 92.7266C51.3493 92.5585 51.6926 92.4744 52.1211 92.4744C52.4928 92.4744 52.8183 92.549 53.0977 92.6982C53.377 92.8449 53.5936 93.071 53.7475 93.3764C53.9038 93.6795 53.9819 94.0653 53.9819 94.5341V98H53.1438V94.5909C53.1438 94.1577 53.0314 93.8227 52.8065 93.5859C52.5839 93.3468 52.275 93.2273 51.8796 93.2273C51.605 93.2273 51.3588 93.2853 51.141 93.4013C50.9255 93.5173 50.7551 93.6866 50.6296 93.9091C50.5065 94.1316 50.445 94.4015 50.445 94.7188ZM55.5151 98V92.5455H56.3532V98H55.5151ZM55.9412 91.6364C55.7779 91.6364 55.637 91.5807 55.5186 91.4695C55.4026 91.3582 55.3446 91.2244 55.3446 91.0682C55.3446 90.9119 55.4026 90.7782 55.5186 90.6669C55.637 90.5556 55.7779 90.5 55.9412 90.5C56.1046 90.5 56.2443 90.5556 56.3603 90.6669C56.4786 90.7782 56.5378 90.9119 56.5378 91.0682C56.5378 91.2244 56.4786 91.3582 56.3603 91.4695C56.2443 91.5807 56.1046 91.6364 55.9412 91.6364ZM58.7262 94.7188V98H57.8881V92.5455H58.6978V93.3977H58.7688C58.8967 93.1207 59.0908 92.8982 59.3512 92.7301C59.6116 92.5597 59.9478 92.4744 60.3597 92.4744C60.729 92.4744 61.0522 92.5502 61.3292 92.7017C61.6062 92.8509 61.8216 93.0781 61.9755 93.3835C62.1294 93.6866 62.2063 94.0701 62.2063 94.5341V98H61.3683V94.5909C61.3683 94.1624 61.257 93.8286 61.0344 93.5895C60.8119 93.348 60.5065 93.2273 60.1183 93.2273C59.8507 93.2273 59.6116 93.2853 59.4009 93.4013C59.1926 93.5173 59.0281 93.6866 58.9073 93.9091C58.7866 94.1316 58.7262 94.4015 58.7262 94.7188ZM65.9395 100.159C65.5346 100.159 65.1866 100.107 64.8954 100.003C64.6042 99.901 64.3616 99.7661 64.1674 99.598C63.9757 99.4323 63.823 99.2547 63.7093 99.0653L64.377 98.5966C64.4527 98.696 64.5486 98.8097 64.6646 98.9375C64.7806 99.0677 64.9392 99.1802 65.1404 99.2749C65.344 99.3719 65.6104 99.4205 65.9395 99.4205C66.3798 99.4205 66.7432 99.3139 67.0297 99.1009C67.3161 98.8878 67.4593 98.554 67.4593 98.0994V96.9915H67.3883C67.3268 97.0909 67.2392 97.214 67.1255 97.3608C67.0143 97.5052 66.8533 97.6342 66.6426 97.7479C66.4342 97.8591 66.1525 97.9148 65.7974 97.9148C65.3571 97.9148 64.9617 97.8106 64.6113 97.6023C64.2633 97.3939 63.9875 97.0909 63.7839 96.6932C63.5827 96.2955 63.4821 95.8125 63.4821 95.2443C63.4821 94.6856 63.5803 94.1991 63.7768 93.7848C63.9733 93.3681 64.2467 93.0462 64.5971 92.8189C64.9475 92.5893 65.3523 92.4744 65.8116 92.4744C66.1667 92.4744 66.4484 92.5336 66.6568 92.652C66.8675 92.768 67.0285 92.9006 67.1397 93.0497C67.2534 93.1965 67.341 93.3172 67.4025 93.4119H67.4877V92.5455H68.2974V98.1562C68.2974 98.625 68.1909 99.0062 67.9778 99.2997C67.7671 99.5956 67.483 99.8123 67.1255 99.9496C66.7704 100.089 66.3751 100.159 65.9395 100.159ZM65.911 97.1619C66.2472 97.1619 66.5313 97.085 66.7633 96.9311C66.9953 96.7772 67.1717 96.5559 67.2924 96.267C67.4132 95.9782 67.4735 95.6326 67.4735 95.2301C67.4735 94.8371 67.4144 94.4903 67.296 94.1896C67.1776 93.889 67.0024 93.6534 66.7704 93.483C66.5384 93.3125 66.252 93.2273 65.911 93.2273C65.5559 93.2273 65.26 93.3172 65.0233 93.4972C64.7889 93.6771 64.6125 93.9186 64.4941 94.2216C64.3781 94.5246 64.3201 94.8608 64.3201 95.2301C64.3201 95.6089 64.3793 95.9439 64.4977 96.2351C64.6184 96.5239 64.796 96.7512 65.0304 96.9169C65.2671 97.0803 65.5607 97.1619 65.911 97.1619ZM70.4423 98.0568C70.2671 98.0568 70.1168 97.9941 69.9913 97.8686C69.8658 97.7431 69.8031 97.5928 69.8031 97.4176C69.8031 97.2424 69.8658 97.0921 69.9913 96.9666C70.1168 96.8411 70.2671 96.7784 70.4423 96.7784C70.6175 96.7784 70.7678 96.8411 70.8933 96.9666C71.0188 97.0921 71.0815 97.2424 71.0815 97.4176C71.0815 97.5336 71.0519 97.6402 70.9927 97.7372C70.9359 97.8343 70.859 97.9124 70.7619 97.9716C70.6672 98.0284 70.5607 98.0568 70.4423 98.0568ZM73.1962 98.0568C73.021 98.0568 72.8707 97.9941 72.7452 97.8686C72.6197 97.7431 72.557 97.5928 72.557 97.4176C72.557 97.2424 72.6197 97.0921 72.7452 96.9666C72.8707 96.8411 73.021 96.7784 73.1962 96.7784C73.3714 96.7784 73.5217 96.8411 73.6472 96.9666C73.7727 97.0921 73.8354 97.2424 73.8354 97.4176C73.8354 97.5336 73.8058 97.6402 73.7466 97.7372C73.6898 97.8343 73.6129 97.9124 73.5158 97.9716C73.4211 98.0284 73.3146 98.0568 73.1962 98.0568ZM75.9501 98.0568C75.7749 98.0568 75.6246 97.9941 75.4991 97.8686C75.3736 97.7431 75.3109 97.5928 75.3109 97.4176C75.3109 97.2424 75.3736 97.0921 75.4991 96.9666C75.6246 96.8411 75.7749 96.7784 75.9501 96.7784C76.1253 96.7784 76.2756 96.8411 76.4011 96.9666C76.5266 97.0921 76.5893 97.2424 76.5893 97.4176C76.5893 97.5336 76.5597 97.6402 76.5005 97.7372C76.4437 97.8343 76.3668 97.9124 76.2697 97.9716C76.175 98.0284 76.0685 98.0568 75.9501 98.0568Z" fill="#00D995" fill-opacity="0.6"/>
<path d="M0 20C0 17.7909 1.79086 16 4 16H16C18.2091 16 20 17.7909 20 20V32C20 34.2091 18.2091 36 16 36H4C1.79086 36 0 34.2091 0 32V20Z" fill="#00D995" fill-opacity="0.16"/>
<path d="M30 18C30 16.8954 30.8954 16 32 16H67C68.1046 16 69 16.8954 69 18V22C69 23.1046 68.1046 24 67 24H32C30.8954 24 30 23.1046 30 22V18Z" fill="#00D995" fill-opacity="0.16"/>
<path d="M73 18C73 16.8954 73.8954 16 75 16H93C94.1046 16 95 16.8954 95 18V22C95 23.1046 94.1046 24 93 24H75C73.8954 24 73 23.1046 73 22V18Z" fill="#00D995" fill-opacity="0.16"/>
<path d="M30 30C30 28.8954 30.8954 28 32 28H50C51.1046 28 52 28.8954 52 30V34C52 35.1046 51.1046 36 50 36H32C30.8954 36 30 35.1046 30 34V30Z" fill="#00D995" fill-opacity="0.16"/>
<path d="M56 30C56 28.8954 56.8954 28 58 28H83C84.1046 28 85 28.8954 85 30V34C85 35.1046 84.1046 36 83 36H58C56.8954 36 56 35.1046 56 34V30Z" fill="#00D995" fill-opacity="0.16"/>
<path d="M89 30C89 28.8954 89.8954 28 91 28H122C123.105 28 124 28.8954 124 30V34C124 35.1046 123.105 36 122 36H91C89.8954 36 89 35.1046 89 34V30Z" fill="#00D995" fill-opacity="0.16"/>
<path d="M128 30C128 28.8954 128.895 28 130 28H151C152.105 28 153 28.8954 153 30V34C153 35.1046 152.105 36 151 36H130C128.895 36 128 35.1046 128 34V30Z" fill="#00D995" fill-opacity="0.16"/>
<path d="M157 30C157 28.8954 157.895 28 159 28H178C179.105 28 180 28.8954 180 30V34C180 35.1046 179.105 36 178 36H159C157.895 36 157 35.1046 157 34V30Z" fill="#00D995" fill-opacity="0.16"/>
<path d="M30 42C30 40.8954 30.8954 40 32 40H75C76.1046 40 77 40.8954 77 42V46C77 47.1046 76.1046 48 75 48H32C30.8954 48 30 47.1046 30 46V42Z" fill="#00D995" fill-opacity="0.16"/>
<path d="M81 42C81 40.8954 81.8954 40 83 40H106C107.105 40 108 40.8954 108 42V46C108 47.1046 107.105 48 106 48H83C81.8954 48 81 47.1046 81 46V42Z" fill="#00D995" fill-opacity="0.16"/>
<path d="M112 42C112 40.8954 112.895 40 114 40H140C141.105 40 142 40.8954 142 42V46C142 47.1046 141.105 48 140 48H114C112.895 48 112 47.1046 112 46V42Z" fill="#00D995" fill-opacity="0.16"/>
<path d="M146 42C146 40.8954 146.895 40 148 40H172C173.105 40 174 40.8954 174 42V46C174 47.1046 173.105 48 172 48H148C146.895 48 146 47.1046 146 46V42Z" fill="#00D995" fill-opacity="0.16"/>
<path d="M30 54C30 52.8954 30.8954 52 32 52H54C55.1046 52 56 52.8954 56 54V58C56 59.1046 55.1046 60 54 60H32C30.8954 60 30 59.1046 30 58V54Z" fill="#00D995" fill-opacity="0.16"/>
<path d="M60 54C60 52.8954 60.8954 52 62 52H93C94.1046 52 95 52.8954 95 54V58C95 59.1046 94.1046 60 93 60H62C60.8954 60 60 59.1046 60 58V54Z" fill="#00D995" fill-opacity="0.16"/>
<defs>
<filter id="filter0_b_1_1152" x="-24" y="52" width="228" height="106" filterUnits="userSpaceOnUse" color-interpolation-filters="sRGB">
<feFlood flood-opacity="0" result="BackgroundImageFix"/>
<feGaussianBlur in="BackgroundImageFix" stdDeviation="12"/>
<feComposite in2="SourceAlpha" operator="in" result="effect1_backgroundBlur_1_1152"/>
<feBlend mode="normal" in="SourceGraphic" in2="effect1_backgroundBlur_1_1152" result="shape"/>
</filter>
</defs>
</svg>
