<svg width="1216" height="364" viewBox="0 0 1216 364" fill="none" xmlns="http://www.w3.org/2000/svg">
<g clip-path="url(#clip0_1_1193)">
<mask id="mask0_1_1193" style="mask-type:alpha" maskUnits="userSpaceOnUse" x="-672" y="0" width="2560" height="960">
<path d="M-672 0H1888V960H-672V0Z" fill="url(#paint0_linear_1_1193)"/>
</mask>
<g mask="url(#mask0_1_1193)">
<path d="M-672 0H1888V960H-672V0Z" fill="url(#paint1_linear_1_1193)"/>
<path d="M-672 0H1888V960H-672V0Z" fill="url(#paint2_radial_1_1193)"/>
<path d="M-672 0H1888V960H-672V0Z" fill="url(#paint3_radial_1_1193)"/>
<path d="M-672 0H1888V960H-672V0Z" fill="url(#paint4_radial_1_1193)"/>
<path d="M-672 0H1888V960H-672V0Z" fill="url(#paint5_radial_1_1193)"/>
<path d="M-672 0H1888V960H-672V0Z" fill="url(#paint6_radial_1_1193)"/>
<path d="M630.67 219.092V196.491L650.45 185.191L670.22 196.491V219.092L650.45 230.392L630.67 219.092Z" fill="url(#paint7_radial_1_1193)" fill-opacity="0.08"/>
<path d="M672.82 219.092V196.491L692.6 185.191L712.37 196.491V219.092L692.6 230.392L672.82 219.092Z" fill="url(#paint8_radial_1_1193)" fill-opacity="0.08"/>
<path d="M483.32 183.017V160.417L503.1 149.117L522.87 160.417V183.017L503.1 194.317L483.32 183.017Z" fill="url(#paint9_radial_1_1193)" fill-opacity="0.08"/>
<path d="M567.61 183.017V160.417L587.38 149.117L607.16 160.417V183.017L587.38 194.317L567.61 183.017Z" fill="url(#paint10_radial_1_1193)" fill-opacity="0.08"/>
<path d="M609.78 183.017V160.417L629.56 149.117L649.33 160.417V183.017L629.56 194.317L609.78 183.017Z" fill="url(#paint11_radial_1_1193)" fill-opacity="0.08"/>
<path d="M778.39 183.017V160.417L798.17 149.117L817.94 160.417V183.017L798.17 194.317L778.39 183.017Z" fill="url(#paint12_radial_1_1193)" fill-opacity="0.08"/>
<path d="M419.89 146.996V124.396L439.67 113.095L459.44 124.396V146.996L439.67 158.296L419.89 146.996Z" fill="url(#paint13_radial_1_1193)" fill-opacity="0.08"/>
<path d="M630.67 146.996V124.396L650.45 113.095L670.22 124.396V146.996L650.45 158.296L630.67 146.996Z" fill="url(#paint14_radial_1_1193)" fill-opacity="0.08"/>
<path d="M714.96 146.996V124.396L734.74 113.095L754.51 124.396V146.996L734.74 158.296L714.96 146.996Z" fill="url(#paint15_radial_1_1193)" fill-opacity="0.08"/>
<path d="M567.61 111.22V88.6198L587.38 77.3198L607.16 88.6198V111.22L587.38 122.521L567.61 111.22Z" fill="url(#paint16_radial_1_1193)" fill-opacity="0.08"/>
<path d="M736.25 111.22V88.6198L756.03 77.3198L775.8 88.6198V111.22L756.03 122.521L736.25 111.22Z" fill="url(#paint17_radial_1_1193)" fill-opacity="0.08"/>
<path d="M778.39 111.22V88.6198L798.17 77.3198L817.94 88.6198V111.22L798.17 122.521L778.39 111.22Z" fill="url(#paint18_radial_1_1193)" fill-opacity="0.08"/>
<path d="M546.78 290.617V268.017L566.56 256.717L586.33 268.017V290.617L566.56 301.917L546.78 290.617Z" fill="url(#paint19_radial_1_1193)" fill-opacity="0.08"/>
<path d="M673.25 290.617V268.017L693.03 256.717L712.8 268.017V290.617L693.03 301.917L673.25 290.617Z" fill="url(#paint20_radial_1_1193)" fill-opacity="0.08"/>
<path d="M546.42 74.9449V52.3449L566.2 41.0449L585.97 52.3449V74.9449L566.2 86.2449L546.42 74.9449Z" fill="url(#paint21_radial_1_1193)" fill-opacity="0.08"/>
<path d="M672.87 74.9449V52.3449L692.65 41.0449L712.43 52.3449V74.9449L692.65 86.2449L672.87 74.9449Z" fill="url(#paint22_radial_1_1193)" fill-opacity="0.08"/>
<path d="M483.32 254.728V232.128L503.1 220.828L522.87 232.128V254.728L503.1 266.028L483.32 254.728Z" fill="url(#paint23_radial_1_1193)" fill-opacity="0.06"/>
<path d="M525.46 254.728V232.128L545.24 220.828L565.01 232.128V254.728L545.24 266.028L525.46 254.728Z" fill="url(#paint24_radial_1_1193)" fill-opacity="0.06"/>
<path d="M567.61 254.728V232.128L587.38 220.828L607.16 232.128V254.728L587.38 266.028L567.61 254.728Z" fill="url(#paint25_radial_1_1193)" fill-opacity="0.06"/>
<path d="M462.03 219.092V196.491L481.81 185.191L501.58 196.491V219.092L481.81 230.392L462.03 219.092Z" fill="url(#paint26_radial_1_1193)" fill-opacity="0.06"/>
<path d="M588.5 219.092V196.491L608.28 185.191L628.05 196.491V219.092L608.28 230.392L588.5 219.092Z" fill="url(#paint27_radial_1_1193)" fill-opacity="0.06"/>
<path d="M714.96 219.092V196.491L734.74 185.191L754.51 196.491V219.092L734.74 230.392L714.96 219.092Z" fill="url(#paint28_radial_1_1193)" fill-opacity="0.06"/>
<path d="M757.14 219.092V196.491L776.92 185.191L796.69 196.491V219.091L776.92 230.392L757.14 219.092Z" fill="url(#paint29_radial_1_1193)" fill-opacity="0.06"/>
<path d="M651.93 183.017V160.417L671.7 149.117L691.48 160.417V183.017L671.7 194.317L651.93 183.017Z" fill="url(#paint30_radial_1_1193)" fill-opacity="0.06"/>
<path d="M694.07 183.017V160.417L713.85 149.117L733.62 160.417V183.017L713.85 194.317L694.07 183.017Z" fill="url(#paint31_radial_1_1193)" fill-opacity="0.06"/>
<path d="M736.25 183.017V160.417L756.03 149.117L775.8 160.417V183.017L756.03 194.317L736.25 183.017Z" fill="url(#paint32_radial_1_1193)" fill-opacity="0.06"/>
<path d="M525.83 326.892V304.292L545.6 292.992L565.38 304.292V326.892L545.6 338.192L525.83 326.892Z" fill="url(#paint33_radial_1_1193)" fill-opacity="0.06"/>
<path d="M567.97 326.892V304.292L587.74 292.992L607.52 304.292V326.892L587.74 338.192L567.97 326.892Z" fill="url(#paint34_radial_1_1193)" fill-opacity="0.06"/>
<path d="M610.15 326.892V304.292L629.92 292.992L649.7 304.292V326.892L629.92 338.192L610.15 326.892Z" fill="url(#paint35_radial_1_1193)" fill-opacity="0.06"/>
<path d="M483.32 111.22V88.6198L503.1 77.3198L522.87 88.6198V111.22L503.1 122.521L483.32 111.22Z" fill="url(#paint36_radial_1_1193)" fill-opacity="0.06"/>
<path d="M525.46 111.22V88.6198L545.24 77.3198L565.01 88.6198V111.22L545.24 122.521L525.46 111.22Z" fill="url(#paint37_radial_1_1193)" fill-opacity="0.06"/>
<path d="M609.78 111.22V88.6198L629.56 77.3198L649.33 88.6198V111.22L629.56 122.521L609.78 111.22Z" fill="url(#paint38_radial_1_1193)" fill-opacity="0.06"/>
<path d="M462.48 290.617V268.017L482.26 256.717L502.03 268.017V290.617L482.26 301.917L462.48 290.617Z" fill="url(#paint39_radial_1_1193)" fill-opacity="0.06"/>
<path d="M504.63 290.617V268.017L524.41 256.717L544.18 268.017V290.617L524.41 301.917L504.63 290.617Z" fill="url(#paint40_radial_1_1193)" fill-opacity="0.06"/>
<path d="M631.1 290.617V268.017L650.88 256.717L670.65 268.017V290.617L650.88 301.917L631.1 290.617Z" fill="url(#paint41_radial_1_1193)" fill-opacity="0.06"/>
<path d="M630.73 74.9449V52.3449L650.51 41.0449L670.28 52.3449V74.9449L650.51 86.2449L630.73 74.9449Z" fill="url(#paint42_radial_1_1193)" fill-opacity="0.06"/>
<path d="M715.03 74.9449V52.3449L734.81 41.0449L754.58 52.3449V74.9449L734.81 86.2449L715.03 74.9449Z" fill="url(#paint43_radial_1_1193)" fill-opacity="0.06"/>
<path d="M757.2 74.9449V52.3449L776.97 41.0449L796.75 52.3449V74.9449L776.97 86.2449L757.2 74.9449Z" fill="url(#paint44_radial_1_1193)" fill-opacity="0.06"/>
<path d="M399 254.728V232.128L418.78 220.828L438.55 232.128V254.728L418.78 266.028L399 254.728Z" fill="url(#paint45_radial_1_1193)" fill-opacity="0.06"/>
<path d="M441.14 254.728V232.128L460.92 220.828L480.69 232.128V254.728L460.92 266.028L441.14 254.728Z" fill="url(#paint46_radial_1_1193)" fill-opacity="0.06"/>
<path d="M609.78 254.728V232.128L629.56 220.828L649.33 232.128V254.728L629.56 266.028L609.78 254.728Z" fill="url(#paint47_radial_1_1193)" fill-opacity="0.06"/>
<path d="M651.93 254.728V232.128L671.7 220.828L691.48 232.128V254.728L671.7 266.028L651.93 254.728Z" fill="url(#paint48_radial_1_1193)" fill-opacity="0.06"/>
<path d="M694.07 254.728V232.128L713.85 220.828L733.62 232.128V254.728L713.85 266.028L694.07 254.728Z" fill="url(#paint49_radial_1_1193)" fill-opacity="0.06"/>
<path d="M736.25 254.728V232.128L756.03 220.828L775.8 232.128V254.728L756.03 266.028L736.25 254.728Z" fill="url(#paint50_radial_1_1193)" fill-opacity="0.06"/>
<path d="M778.39 254.728V232.128L798.17 220.828L817.94 232.128V254.728L798.17 266.028L778.39 254.728Z" fill="url(#paint51_radial_1_1193)" fill-opacity="0.06"/>
<path d="M419.89 219.092V196.491L439.67 185.191L459.44 196.491V219.092L439.67 230.392L419.89 219.092Z" fill="url(#paint52_radial_1_1193)" fill-opacity="0.06"/>
<path d="M504.2 219.092V196.491L523.98 185.191L543.75 196.491V219.092L523.98 230.392L504.2 219.092Z" fill="url(#paint53_radial_1_1193)" fill-opacity="0.06"/>
<path d="M546.35 219.092V196.491L566.13 185.191L585.9 196.491V219.092L566.13 230.392L546.35 219.092Z" fill="url(#paint54_radial_1_1193)" fill-opacity="0.06"/>
<path d="M399 183.017V160.417L418.78 149.117L438.55 160.417V183.017L418.78 194.317L399 183.017Z" fill="url(#paint55_radial_1_1193)" fill-opacity="0.06"/>
<path d="M441.14 183.017V160.417L460.92 149.117L480.69 160.417V183.017L460.92 194.317L441.14 183.017Z" fill="url(#paint56_radial_1_1193)" fill-opacity="0.06"/>
<path d="M462.03 146.996V124.396L481.81 113.095L501.58 124.396V146.996L481.81 158.296L462.03 146.996Z" fill="url(#paint57_radial_1_1193)" fill-opacity="0.06"/>
<path d="M504.2 146.996V124.396L523.98 113.095L543.75 124.396V146.996L523.98 158.296L504.2 146.996Z" fill="url(#paint58_radial_1_1193)" fill-opacity="0.06"/>
<path d="M546.35 146.996V124.396L566.13 113.095L585.9 124.396V146.996L566.13 158.296L546.35 146.996Z" fill="url(#paint59_radial_1_1193)" fill-opacity="0.06"/>
<path d="M588.5 146.996V124.396L608.28 113.095L628.05 124.396V146.996L608.28 158.296L588.5 146.996Z" fill="url(#paint60_radial_1_1193)" fill-opacity="0.06"/>
<path d="M672.82 146.996V124.396L692.6 113.095L712.37 124.396V146.996L692.6 158.296L672.82 146.996Z" fill="url(#paint61_radial_1_1193)" fill-opacity="0.06"/>
<path d="M757.14 146.996V124.396L776.92 113.095L796.69 124.396V146.996L776.92 158.296L757.14 146.996Z" fill="url(#paint62_radial_1_1193)" fill-opacity="0.06"/>
<path d="M441.52 326.892V304.292L461.29 292.992L481.07 304.292V326.892L461.29 338.192L441.52 326.892Z" fill="url(#paint63_radial_1_1193)" fill-opacity="0.06"/>
<path d="M483.68 326.892V304.292L503.45 292.992L523.23 304.292V326.892L503.45 338.192L483.68 326.892Z" fill="url(#paint64_radial_1_1193)" fill-opacity="0.06"/>
<path d="M652.29 326.892V304.292L672.06 292.992L691.84 304.292V326.892L672.06 338.192L652.29 326.892Z" fill="url(#paint65_radial_1_1193)" fill-opacity="0.06"/>
<path d="M694.44 326.892V304.292L714.21 292.992L733.99 304.292V326.892L714.21 338.192L694.44 326.892Z" fill="url(#paint66_radial_1_1193)" fill-opacity="0.06"/>
<path d="M736.61 326.892V304.292L756.38 292.992L776.16 304.292V326.892L756.38 338.192L736.61 326.892Z" fill="url(#paint67_radial_1_1193)" fill-opacity="0.06"/>
<path d="M399 111.22V88.6198L418.78 77.3198L438.55 88.6198V111.22L418.78 122.521L399 111.22Z" fill="url(#paint68_radial_1_1193)" fill-opacity="0.06"/>
<path d="M441.14 111.22V88.6198L460.92 77.3198L480.69 88.6198V111.22L460.92 122.521L441.14 111.22Z" fill="url(#paint69_radial_1_1193)" fill-opacity="0.06"/>
<path d="M651.93 111.22V88.6198L671.7 77.3198L691.48 88.6198V111.22L671.7 122.521L651.93 111.22Z" fill="url(#paint70_radial_1_1193)" fill-opacity="0.06"/>
<path d="M694.07 111.22V88.6198L713.85 77.3198L733.62 88.6198V111.22L713.85 122.521L694.07 111.22Z" fill="url(#paint71_radial_1_1193)" fill-opacity="0.06"/>
<path d="M420.32 290.617V268.017L440.1 256.717L459.87 268.017V290.617L440.1 301.917L420.32 290.617Z" fill="url(#paint72_radial_1_1193)" fill-opacity="0.06"/>
<path d="M588.95 290.617V268.017L608.73 256.717L628.5 268.017V290.617L608.73 301.917L588.95 290.617Z" fill="url(#paint73_radial_1_1193)" fill-opacity="0.06"/>
<path d="M715.39 290.617V268.017L735.17 256.716L754.94 268.017V290.617L735.17 301.917L715.39 290.617Z" fill="url(#paint74_radial_1_1193)" fill-opacity="0.06"/>
<path d="M757.57 290.617V268.017L777.35 256.716L797.12 268.017V290.617L777.35 301.917L757.57 290.617Z" fill="url(#paint75_radial_1_1193)" fill-opacity="0.06"/>
<path d="M419.95 74.9449V52.3449L439.73 41.0449L459.5 52.3449V74.9449L439.73 86.2449L419.95 74.9449Z" fill="url(#paint76_radial_1_1193)" fill-opacity="0.06"/>
<path d="M462.12 74.9449V52.3449L481.89 41.0449L501.67 52.3449V74.9449L481.89 86.2449L462.12 74.9449Z" fill="url(#paint77_radial_1_1193)" fill-opacity="0.06"/>
<path d="M504.27 74.9449V52.3449L524.04 41.0449L543.82 52.3449V74.9449L524.04 86.2449L504.27 74.9449Z" fill="url(#paint78_radial_1_1193)" fill-opacity="0.06"/>
<path d="M588.58 74.9449V52.3449L608.35 41.0449L628.13 52.3449V74.9449L608.35 86.2449L588.58 74.9449Z" fill="url(#paint79_radial_1_1193)" fill-opacity="0.06"/>
<path d="M525.46 183.017V160.417L545.24 149.117L565.01 160.417V183.017L545.24 194.317L525.46 183.017Z" fill="url(#paint80_radial_1_1193)" fill-opacity="0.06"/>
<g opacity="0.12">
<path d="M461.7 73.9V51.3L481.47 40L501.25 51.3V73.9L481.47 85.2L461.7 73.9Z" fill="#00D995" fill-opacity="0.16"/>
<path d="M461.7 73.9V51.3L481.47 40L501.25 51.3V73.9L481.47 85.2L461.7 73.9Z" stroke="url(#paint81_radial_1_1193)" stroke-linecap="round"/>
<path d="M461.7 73.9V51.3L481.47 40L501.25 51.3V73.9L481.47 85.2L461.7 73.9Z" stroke="url(#paint82_radial_1_1193)" stroke-opacity="0.49" stroke-linecap="round"/>
</g>
<g opacity="0.26">
<path d="M482.88 182.951V160.351L502.65 149.051L522.43 160.351V182.951L502.65 194.251L482.88 182.951Z" fill="#00D995" fill-opacity="0.16"/>
<path d="M482.88 182.951V160.351L502.65 149.051L522.43 160.351V182.951L502.65 194.251L482.88 182.951Z" stroke="url(#paint83_radial_1_1193)" stroke-linecap="round"/>
<path d="M482.88 182.951V160.351L502.65 149.051L522.43 160.351V182.951L502.65 194.251L482.88 182.951Z" stroke="url(#paint84_radial_1_1193)" stroke-opacity="0.49" stroke-linecap="round"/>
</g>
<g opacity="0.26">
<path d="M525.04 181.959V159.358L544.81 148.058L564.59 159.358V181.959L544.81 193.259L525.04 181.959Z" fill="#00D995" fill-opacity="0.16"/>
<path d="M525.04 181.959V159.358L544.81 148.058L564.59 159.358V181.959L544.81 193.259L525.04 181.959Z" stroke="url(#paint85_radial_1_1193)" stroke-linecap="round"/>
<path d="M525.04 181.959V159.358L544.81 148.058L564.59 159.358V181.959L544.81 193.259L525.04 181.959Z" stroke="url(#paint86_radial_1_1193)" stroke-opacity="0.49" stroke-linecap="round"/>
</g>
<g opacity="0.26">
<path d="M504.65 218.91V196.31L524.42 185.009L544.2 196.31V218.91L524.42 230.21L504.65 218.91Z" fill="#00D995" fill-opacity="0.16"/>
<path d="M504.65 218.91V196.31L524.42 185.009L544.2 196.31V218.91L524.42 230.21L504.65 218.91Z" stroke="url(#paint87_radial_1_1193)" stroke-linecap="round"/>
<path d="M504.65 218.91V196.31L524.42 185.009L544.2 196.31V218.91L524.42 230.21L504.65 218.91Z" stroke="url(#paint88_radial_1_1193)" stroke-opacity="0.49" stroke-linecap="round"/>
</g>
</g>
</g>
<defs>
<linearGradient id="paint0_linear_1_1193" x1="608" y1="145.99" x2="608" y2="960" gradientUnits="userSpaceOnUse">
<stop offset="0.687" stop-color="#040406"/>
<stop offset="0.969" stop-color="#18181A"/>
</linearGradient>
<linearGradient id="paint1_linear_1_1193" x1="608" y1="145.99" x2="608" y2="960" gradientUnits="userSpaceOnUse">
<stop offset="0.687" stop-color="#070E10"/>
<stop offset="0.969" stop-color="#070E10"/>
</linearGradient>
<radialGradient id="paint2_radial_1_1193" cx="0" cy="0" r="1" gradientUnits="userSpaceOnUse" gradientTransform="translate(809.323 2.8461e-05) rotate(116.073) scale(708.1 937.647)">
<stop stop-color="#130D0D"/>
<stop offset="1" stop-color="#130D0D" stop-opacity="0"/>
</radialGradient>
<radialGradient id="paint3_radial_1_1193" cx="0" cy="0" r="1" gradientUnits="userSpaceOnUse" gradientTransform="translate(508.915 -0.000474957) rotate(117.9) scale(477.4 277.249)">
<stop stop-color="#002F20"/>
<stop offset="1" stop-color="#13211C" stop-opacity="0"/>
</radialGradient>
<radialGradient id="paint4_radial_1_1193" cx="0" cy="0" r="1" gradientUnits="userSpaceOnUse" gradientTransform="translate(858.415 -52.5795) rotate(130.886) scale(667.439 315.106)">
<stop stop-color="#00D995" stop-opacity="0.16"/>
<stop offset="1" stop-color="#00D995" stop-opacity="0"/>
</radialGradient>
<radialGradient id="paint5_radial_1_1193" cx="0" cy="0" r="1" gradientUnits="userSpaceOnUse" gradientTransform="translate(1102.52 398.587) rotate(131.435) scale(328.042 280.803)">
<stop stop-color="#151428"/>
<stop offset="1" stop-color="#15161F" stop-opacity="0"/>
</radialGradient>
<radialGradient id="paint6_radial_1_1193" cx="0" cy="0" r="1" gradientUnits="userSpaceOnUse" gradientTransform="translate(892.645 593.64) rotate(132.141) scale(297.366 254.171)">
<stop stop-color="#0D1B1E"/>
<stop offset="1" stop-color="#0D1B1E" stop-opacity="0"/>
</radialGradient>
<radialGradient id="paint7_radial_1_1193" cx="0" cy="0" r="1" gradientUnits="userSpaceOnUse" gradientTransform="translate(655 186.692) rotate(-123.465) scale(70.7248 62.2675)">
<stop stop-color="#00D995" stop-opacity="0.32"/>
<stop offset="1" stop-color="#00D995" stop-opacity="0"/>
</radialGradient>
<radialGradient id="paint8_radial_1_1193" cx="0" cy="0" r="1" gradientUnits="userSpaceOnUse" gradientTransform="translate(655 186.692) rotate(-123.465) scale(70.7248 62.2677)">
<stop stop-color="#00D995"/>
<stop offset="1" stop-color="#00D995" stop-opacity="0"/>
</radialGradient>
<radialGradient id="paint9_radial_1_1193" cx="0" cy="0" r="1" gradientUnits="userSpaceOnUse" gradientTransform="translate(655 186.692) rotate(-123.465) scale(70.7248 62.2677)">
<stop stop-color="#00D995"/>
<stop offset="1" stop-color="#00D995" stop-opacity="0"/>
</radialGradient>
<radialGradient id="paint10_radial_1_1193" cx="0" cy="0" r="1" gradientUnits="userSpaceOnUse" gradientTransform="translate(655 186.692) rotate(-123.465) scale(70.7248 62.2677)">
<stop stop-color="#00D995"/>
<stop offset="1" stop-color="#00D995" stop-opacity="0"/>
</radialGradient>
<radialGradient id="paint11_radial_1_1193" cx="0" cy="0" r="1" gradientUnits="userSpaceOnUse" gradientTransform="translate(655 186.692) rotate(-123.465) scale(70.7248 62.2675)">
<stop stop-color="#00D995"/>
<stop offset="1" stop-color="#00D995" stop-opacity="0"/>
</radialGradient>
<radialGradient id="paint12_radial_1_1193" cx="0" cy="0" r="1" gradientUnits="userSpaceOnUse" gradientTransform="translate(655 186.692) rotate(-123.465) scale(70.7248 62.2675)">
<stop stop-color="#00D995"/>
<stop offset="1" stop-color="#00D995" stop-opacity="0"/>
</radialGradient>
<radialGradient id="paint13_radial_1_1193" cx="0" cy="0" r="1" gradientUnits="userSpaceOnUse" gradientTransform="translate(655 186.692) rotate(-123.465) scale(70.7248 62.2675)">
<stop stop-color="#00D995"/>
<stop offset="1" stop-color="#00D995" stop-opacity="0"/>
</radialGradient>
<radialGradient id="paint14_radial_1_1193" cx="0" cy="0" r="1" gradientUnits="userSpaceOnUse" gradientTransform="translate(655 186.692) rotate(-123.465) scale(70.7248 62.2675)">
<stop stop-color="#00D995"/>
<stop offset="1" stop-color="#00D995" stop-opacity="0"/>
</radialGradient>
<radialGradient id="paint15_radial_1_1193" cx="0" cy="0" r="1" gradientUnits="userSpaceOnUse" gradientTransform="translate(655 186.692) rotate(-123.465) scale(70.7248 62.2677)">
<stop stop-color="#00D995"/>
<stop offset="1" stop-color="#00D995" stop-opacity="0"/>
</radialGradient>
<radialGradient id="paint16_radial_1_1193" cx="0" cy="0" r="1" gradientUnits="userSpaceOnUse" gradientTransform="translate(655 186.692) rotate(-123.465) scale(70.7248 62.2677)">
<stop stop-color="#00D995"/>
<stop offset="1" stop-color="#00D995" stop-opacity="0"/>
</radialGradient>
<radialGradient id="paint17_radial_1_1193" cx="0" cy="0" r="1" gradientUnits="userSpaceOnUse" gradientTransform="translate(655 186.692) rotate(-123.465) scale(70.7248 62.2677)">
<stop stop-color="#00D995"/>
<stop offset="1" stop-color="#00D995" stop-opacity="0"/>
</radialGradient>
<radialGradient id="paint18_radial_1_1193" cx="0" cy="0" r="1" gradientUnits="userSpaceOnUse" gradientTransform="translate(655 186.692) rotate(-123.465) scale(70.7248 62.2675)">
<stop stop-color="#00D995"/>
<stop offset="1" stop-color="#00D995" stop-opacity="0"/>
</radialGradient>
<radialGradient id="paint19_radial_1_1193" cx="0" cy="0" r="1" gradientUnits="userSpaceOnUse" gradientTransform="translate(655 186.692) rotate(-123.465) scale(70.7248 62.2675)">
<stop stop-color="#00D995"/>
<stop offset="1" stop-color="#00D995" stop-opacity="0"/>
</radialGradient>
<radialGradient id="paint20_radial_1_1193" cx="0" cy="0" r="1" gradientUnits="userSpaceOnUse" gradientTransform="translate(655 186.692) rotate(-123.465) scale(70.7248 62.2677)">
<stop stop-color="#00D995"/>
<stop offset="0.53" stop-color="#00D995" stop-opacity="0"/>
</radialGradient>
<radialGradient id="paint21_radial_1_1193" cx="0" cy="0" r="1" gradientUnits="userSpaceOnUse" gradientTransform="translate(655 186.692) rotate(-123.465) scale(70.7248 62.2675)">
<stop stop-color="#00D995"/>
<stop offset="1" stop-color="#00D995" stop-opacity="0"/>
</radialGradient>
<radialGradient id="paint22_radial_1_1193" cx="0" cy="0" r="1" gradientUnits="userSpaceOnUse" gradientTransform="translate(655 186.692) rotate(-123.465) scale(70.7248 62.2677)">
<stop stop-color="#00D995"/>
<stop offset="1" stop-color="#00D995" stop-opacity="0"/>
</radialGradient>
<radialGradient id="paint23_radial_1_1193" cx="0" cy="0" r="1" gradientUnits="userSpaceOnUse" gradientTransform="translate(499 168.692) rotate(-61.728) scale(67.5592 76.1005)">
<stop stop-color="#00D995"/>
<stop offset="1" stop-color="#00D995" stop-opacity="0"/>
</radialGradient>
<radialGradient id="paint24_radial_1_1193" cx="0" cy="0" r="1" gradientUnits="userSpaceOnUse" gradientTransform="translate(499 168.692) rotate(-61.728) scale(67.5592 76.1005)">
<stop stop-color="#00D995"/>
<stop offset="1" stop-color="#00D995" stop-opacity="0"/>
</radialGradient>
<radialGradient id="paint25_radial_1_1193" cx="0" cy="0" r="1" gradientUnits="userSpaceOnUse" gradientTransform="translate(499 168.692) rotate(-61.728) scale(67.5592 76.1005)">
<stop stop-color="#00D995"/>
<stop offset="1" stop-color="#00D995" stop-opacity="0"/>
</radialGradient>
<radialGradient id="paint26_radial_1_1193" cx="0" cy="0" r="1" gradientUnits="userSpaceOnUse" gradientTransform="translate(499 168.692) rotate(-61.728) scale(67.5592 76.1003)">
<stop stop-color="#00D995"/>
<stop offset="1" stop-color="#00D995" stop-opacity="0"/>
</radialGradient>
<radialGradient id="paint27_radial_1_1193" cx="0" cy="0" r="1" gradientUnits="userSpaceOnUse" gradientTransform="translate(499 168.692) rotate(-61.728) scale(67.5592 76.1005)">
<stop stop-color="#00D995"/>
<stop offset="1" stop-color="#00D995" stop-opacity="0"/>
</radialGradient>
<radialGradient id="paint28_radial_1_1193" cx="0" cy="0" r="1" gradientUnits="userSpaceOnUse" gradientTransform="translate(499 168.692) rotate(-61.728) scale(67.5592 76.1005)">
<stop stop-color="#00D995"/>
<stop offset="1" stop-color="#00D995" stop-opacity="0"/>
</radialGradient>
<radialGradient id="paint29_radial_1_1193" cx="0" cy="0" r="1" gradientUnits="userSpaceOnUse" gradientTransform="translate(499.001 168.692) rotate(-61.728) scale(67.5592 76.1003)">
<stop stop-color="#00D995"/>
<stop offset="1" stop-color="#00D995" stop-opacity="0"/>
</radialGradient>
<radialGradient id="paint30_radial_1_1193" cx="0" cy="0" r="1" gradientUnits="userSpaceOnUse" gradientTransform="translate(499 168.692) rotate(-61.7281) scale(67.5592 76.1003)">
<stop stop-color="#00D995"/>
<stop offset="1" stop-color="#00D995" stop-opacity="0"/>
</radialGradient>
<radialGradient id="paint31_radial_1_1193" cx="0" cy="0" r="1" gradientUnits="userSpaceOnUse" gradientTransform="translate(499 168.692) rotate(-61.728) scale(67.5592 76.1005)">
<stop stop-color="#00D995"/>
<stop offset="1" stop-color="#00D995" stop-opacity="0"/>
</radialGradient>
<radialGradient id="paint32_radial_1_1193" cx="0" cy="0" r="1" gradientUnits="userSpaceOnUse" gradientTransform="translate(499 168.692) rotate(-61.728) scale(67.5592 76.1005)">
<stop stop-color="#00D995"/>
<stop offset="1" stop-color="#00D995" stop-opacity="0"/>
</radialGradient>
<radialGradient id="paint33_radial_1_1193" cx="0" cy="0" r="1" gradientUnits="userSpaceOnUse" gradientTransform="translate(499 168.692) rotate(-61.728) scale(67.5592 76.1005)">
<stop stop-color="#00D995"/>
<stop offset="1" stop-color="#00D995" stop-opacity="0"/>
</radialGradient>
<radialGradient id="paint34_radial_1_1193" cx="0" cy="0" r="1" gradientUnits="userSpaceOnUse" gradientTransform="translate(499 168.692) rotate(-61.728) scale(67.5592 76.1005)">
<stop stop-color="#00D995"/>
<stop offset="1" stop-color="#00D995" stop-opacity="0"/>
</radialGradient>
<radialGradient id="paint35_radial_1_1193" cx="0" cy="0" r="1" gradientUnits="userSpaceOnUse" gradientTransform="translate(499 168.692) rotate(-61.7281) scale(67.5592 76.1003)">
<stop stop-color="#00D995"/>
<stop offset="1" stop-color="#00D995" stop-opacity="0"/>
</radialGradient>
<radialGradient id="paint36_radial_1_1193" cx="0" cy="0" r="1" gradientUnits="userSpaceOnUse" gradientTransform="translate(499 168.692) rotate(-61.728) scale(67.5592 76.1005)">
<stop stop-color="#00D995"/>
<stop offset="1" stop-color="#00D995" stop-opacity="0"/>
</radialGradient>
<radialGradient id="paint37_radial_1_1193" cx="0" cy="0" r="1" gradientUnits="userSpaceOnUse" gradientTransform="translate(499 168.692) rotate(-61.728) scale(67.5592 76.1005)">
<stop stop-color="#00D995"/>
<stop offset="1" stop-color="#00D995" stop-opacity="0"/>
</radialGradient>
<radialGradient id="paint38_radial_1_1193" cx="0" cy="0" r="1" gradientUnits="userSpaceOnUse" gradientTransform="translate(499 168.692) rotate(-61.728) scale(67.5592 76.1003)">
<stop stop-color="#00D995"/>
<stop offset="1" stop-color="#00D995" stop-opacity="0"/>
</radialGradient>
<radialGradient id="paint39_radial_1_1193" cx="0" cy="0" r="1" gradientUnits="userSpaceOnUse" gradientTransform="translate(499 168.692) rotate(-61.728) scale(67.5592 76.1005)">
<stop stop-color="#00D995"/>
<stop offset="1" stop-color="#00D995" stop-opacity="0"/>
</radialGradient>
<radialGradient id="paint40_radial_1_1193" cx="0" cy="0" r="1" gradientUnits="userSpaceOnUse" gradientTransform="translate(499 168.692) rotate(-61.728) scale(67.5592 76.1005)">
<stop stop-color="#00D995"/>
<stop offset="1" stop-color="#00D995" stop-opacity="0"/>
</radialGradient>
<radialGradient id="paint41_radial_1_1193" cx="0" cy="0" r="1" gradientUnits="userSpaceOnUse" gradientTransform="translate(499 168.692) rotate(-61.728) scale(67.5592 76.1005)">
<stop stop-color="#00D995"/>
<stop offset="1" stop-color="#00D995" stop-opacity="0"/>
</radialGradient>
<radialGradient id="paint42_radial_1_1193" cx="0" cy="0" r="1" gradientUnits="userSpaceOnUse" gradientTransform="translate(499 168.692) rotate(-61.728) scale(67.5592 76.1005)">
<stop stop-color="#00D995"/>
<stop offset="1" stop-color="#00D995" stop-opacity="0"/>
</radialGradient>
<radialGradient id="paint43_radial_1_1193" cx="0" cy="0" r="1" gradientUnits="userSpaceOnUse" gradientTransform="translate(499.001 168.692) rotate(-61.728) scale(67.5592 76.1003)">
<stop stop-color="#00D995"/>
<stop offset="1" stop-color="#00D995" stop-opacity="0"/>
</radialGradient>
<radialGradient id="paint44_radial_1_1193" cx="0" cy="0" r="1" gradientUnits="userSpaceOnUse" gradientTransform="translate(499 168.692) rotate(-61.728) scale(67.5592 76.1005)">
<stop stop-color="#00D995"/>
<stop offset="1" stop-color="#00D995" stop-opacity="0"/>
</radialGradient>
<radialGradient id="paint45_radial_1_1193" cx="0" cy="0" r="1" gradientUnits="userSpaceOnUse" gradientTransform="translate(476.5 160.692) rotate(131.121) scale(83.6302 119.209)">
<stop stop-color="#00D995"/>
<stop offset="1" stop-color="#00D995" stop-opacity="0"/>
</radialGradient>
<radialGradient id="paint46_radial_1_1193" cx="0" cy="0" r="1" gradientUnits="userSpaceOnUse" gradientTransform="translate(476.5 160.692) rotate(131.121) scale(83.63 119.209)">
<stop stop-color="#00D995"/>
<stop offset="1" stop-color="#00D995" stop-opacity="0"/>
</radialGradient>
<radialGradient id="paint47_radial_1_1193" cx="0" cy="0" r="1" gradientUnits="userSpaceOnUse" gradientTransform="translate(476.501 160.692) rotate(131.121) scale(83.63 119.209)">
<stop stop-color="#00D995"/>
<stop offset="1" stop-color="#00D995" stop-opacity="0"/>
</radialGradient>
<radialGradient id="paint48_radial_1_1193" cx="0" cy="0" r="1" gradientUnits="userSpaceOnUse" gradientTransform="translate(476.501 160.692) rotate(131.121) scale(83.63 119.209)">
<stop stop-color="#00D995"/>
<stop offset="1" stop-color="#00D995" stop-opacity="0"/>
</radialGradient>
<radialGradient id="paint49_radial_1_1193" cx="0" cy="0" r="1" gradientUnits="userSpaceOnUse" gradientTransform="translate(476.5 160.692) rotate(131.121) scale(83.6302 119.209)">
<stop stop-color="#00D995"/>
<stop offset="1" stop-color="#00D995" stop-opacity="0"/>
</radialGradient>
<radialGradient id="paint50_radial_1_1193" cx="0" cy="0" r="1" gradientUnits="userSpaceOnUse" gradientTransform="translate(476.5 160.692) rotate(131.121) scale(83.6302 119.209)">
<stop stop-color="#00D995"/>
<stop offset="1" stop-color="#00D995" stop-opacity="0"/>
</radialGradient>
<radialGradient id="paint51_radial_1_1193" cx="0" cy="0" r="1" gradientUnits="userSpaceOnUse" gradientTransform="translate(476.501 160.692) rotate(131.121) scale(83.63 119.209)">
<stop stop-color="#00D995"/>
<stop offset="1" stop-color="#00D995" stop-opacity="0"/>
</radialGradient>
<radialGradient id="paint52_radial_1_1193" cx="0" cy="0" r="1" gradientUnits="userSpaceOnUse" gradientTransform="translate(476.5 160.692) rotate(131.121) scale(83.63 119.209)">
<stop stop-color="#00D995"/>
<stop offset="1" stop-color="#00D995" stop-opacity="0"/>
</radialGradient>
<radialGradient id="paint53_radial_1_1193" cx="0" cy="0" r="1" gradientUnits="userSpaceOnUse" gradientTransform="translate(476.5 160.692) rotate(131.121) scale(83.6301 119.209)">
<stop stop-color="#00D995"/>
<stop offset="1" stop-color="#00D995" stop-opacity="0"/>
</radialGradient>
<radialGradient id="paint54_radial_1_1193" cx="0" cy="0" r="1" gradientUnits="userSpaceOnUse" gradientTransform="translate(476.5 160.692) rotate(131.121) scale(83.6301 119.209)">
<stop stop-color="#00D995"/>
<stop offset="1" stop-color="#00D995" stop-opacity="0"/>
</radialGradient>
<radialGradient id="paint55_radial_1_1193" cx="0" cy="0" r="1" gradientUnits="userSpaceOnUse" gradientTransform="translate(476.5 160.692) rotate(131.121) scale(83.6302 119.209)">
<stop stop-color="#00D995"/>
<stop offset="1" stop-color="#00D995" stop-opacity="0"/>
</radialGradient>
<radialGradient id="paint56_radial_1_1193" cx="0" cy="0" r="1" gradientUnits="userSpaceOnUse" gradientTransform="translate(476.5 160.692) rotate(131.121) scale(83.63 119.209)">
<stop stop-color="#00D995"/>
<stop offset="1" stop-color="#00D995" stop-opacity="0"/>
</radialGradient>
<radialGradient id="paint57_radial_1_1193" cx="0" cy="0" r="1" gradientUnits="userSpaceOnUse" gradientTransform="translate(476.5 160.692) rotate(131.121) scale(83.63 119.209)">
<stop stop-color="#00D995"/>
<stop offset="1" stop-color="#00D995" stop-opacity="0"/>
</radialGradient>
<radialGradient id="paint58_radial_1_1193" cx="0" cy="0" r="1" gradientUnits="userSpaceOnUse" gradientTransform="translate(476.5 160.692) rotate(131.121) scale(83.6301 119.209)">
<stop stop-color="#00D995"/>
<stop offset="1" stop-color="#00D995" stop-opacity="0"/>
</radialGradient>
<radialGradient id="paint59_radial_1_1193" cx="0" cy="0" r="1" gradientUnits="userSpaceOnUse" gradientTransform="translate(476.5 160.692) rotate(131.121) scale(83.6301 119.209)">
<stop stop-color="#00D995"/>
<stop offset="1" stop-color="#00D995" stop-opacity="0"/>
</radialGradient>
<radialGradient id="paint60_radial_1_1193" cx="0" cy="0" r="1" gradientUnits="userSpaceOnUse" gradientTransform="translate(476.5 160.692) rotate(131.121) scale(83.6301 119.209)">
<stop stop-color="#00D995"/>
<stop offset="1" stop-color="#00D995" stop-opacity="0"/>
</radialGradient>
<radialGradient id="paint61_radial_1_1193" cx="0" cy="0" r="1" gradientUnits="userSpaceOnUse" gradientTransform="translate(476.5 160.692) rotate(131.121) scale(83.6301 119.209)">
<stop stop-color="#00D995"/>
<stop offset="1" stop-color="#00D995" stop-opacity="0"/>
</radialGradient>
<radialGradient id="paint62_radial_1_1193" cx="0" cy="0" r="1" gradientUnits="userSpaceOnUse" gradientTransform="translate(476.501 160.692) rotate(131.121) scale(83.63 119.209)">
<stop stop-color="#00D995"/>
<stop offset="1" stop-color="#00D995" stop-opacity="0"/>
</radialGradient>
<radialGradient id="paint63_radial_1_1193" cx="0" cy="0" r="1" gradientUnits="userSpaceOnUse" gradientTransform="translate(476.5 160.692) rotate(131.121) scale(83.63 119.209)">
<stop stop-color="#00D995"/>
<stop offset="1" stop-color="#00D995" stop-opacity="0"/>
</radialGradient>
<radialGradient id="paint64_radial_1_1193" cx="0" cy="0" r="1" gradientUnits="userSpaceOnUse" gradientTransform="translate(476.5 160.692) rotate(131.121) scale(83.63 119.209)">
<stop stop-color="#00D995"/>
<stop offset="1" stop-color="#00D995" stop-opacity="0"/>
</radialGradient>
<radialGradient id="paint65_radial_1_1193" cx="0" cy="0" r="1" gradientUnits="userSpaceOnUse" gradientTransform="translate(476.5 160.692) rotate(131.121) scale(83.63 119.209)">
<stop stop-color="#00D995"/>
<stop offset="1" stop-color="#00D995" stop-opacity="0"/>
</radialGradient>
<radialGradient id="paint66_radial_1_1193" cx="0" cy="0" r="1" gradientUnits="userSpaceOnUse" gradientTransform="translate(476.5 160.692) rotate(131.121) scale(83.6302 119.209)">
<stop stop-color="#00D995"/>
<stop offset="1" stop-color="#00D995" stop-opacity="0"/>
</radialGradient>
<radialGradient id="paint67_radial_1_1193" cx="0" cy="0" r="1" gradientUnits="userSpaceOnUse" gradientTransform="translate(476.5 160.692) rotate(131.121) scale(83.6302 119.209)">
<stop stop-color="#00D995"/>
<stop offset="1" stop-color="#00D995" stop-opacity="0"/>
</radialGradient>
<radialGradient id="paint68_radial_1_1193" cx="0" cy="0" r="1" gradientUnits="userSpaceOnUse" gradientTransform="translate(476.5 160.692) rotate(131.121) scale(83.6301 119.209)">
<stop stop-color="#00D995"/>
<stop offset="1" stop-color="#00D995" stop-opacity="0"/>
</radialGradient>
<radialGradient id="paint69_radial_1_1193" cx="0" cy="0" r="1" gradientUnits="userSpaceOnUse" gradientTransform="translate(476.5 160.692) rotate(131.121) scale(83.63 119.209)">
<stop stop-color="#00D995"/>
<stop offset="1" stop-color="#00D995" stop-opacity="0"/>
</radialGradient>
<radialGradient id="paint70_radial_1_1193" cx="0" cy="0" r="1" gradientUnits="userSpaceOnUse" gradientTransform="translate(476.501 160.692) rotate(131.121) scale(83.63 119.209)">
<stop stop-color="#00D995"/>
<stop offset="1" stop-color="#00D995" stop-opacity="0"/>
</radialGradient>
<radialGradient id="paint71_radial_1_1193" cx="0" cy="0" r="1" gradientUnits="userSpaceOnUse" gradientTransform="translate(476.5 160.692) rotate(131.121) scale(83.6301 119.209)">
<stop stop-color="#00D995"/>
<stop offset="1" stop-color="#00D995" stop-opacity="0"/>
</radialGradient>
<radialGradient id="paint72_radial_1_1193" cx="0" cy="0" r="1" gradientUnits="userSpaceOnUse" gradientTransform="translate(476.5 160.692) rotate(131.121) scale(83.6302 119.209)">
<stop stop-color="#00D995"/>
<stop offset="1" stop-color="#00D995" stop-opacity="0"/>
</radialGradient>
<radialGradient id="paint73_radial_1_1193" cx="0" cy="0" r="1" gradientUnits="userSpaceOnUse" gradientTransform="translate(476.5 160.692) rotate(131.121) scale(83.6302 119.209)">
<stop stop-color="#00D995"/>
<stop offset="1" stop-color="#00D995" stop-opacity="0"/>
</radialGradient>
<radialGradient id="paint74_radial_1_1193" cx="0" cy="0" r="1" gradientUnits="userSpaceOnUse" gradientTransform="translate(476.501 160.692) rotate(131.121) scale(83.6301 119.209)">
<stop stop-color="#00D995"/>
<stop offset="1" stop-color="#00D995" stop-opacity="0"/>
</radialGradient>
<radialGradient id="paint75_radial_1_1193" cx="0" cy="0" r="1" gradientUnits="userSpaceOnUse" gradientTransform="translate(476.499 160.692) rotate(131.121) scale(83.6302 119.209)">
<stop stop-color="#00D995"/>
<stop offset="1" stop-color="#00D995" stop-opacity="0"/>
</radialGradient>
<radialGradient id="paint76_radial_1_1193" cx="0" cy="0" r="1" gradientUnits="userSpaceOnUse" gradientTransform="translate(476.5 160.692) rotate(131.121) scale(83.6301 119.209)">
<stop stop-color="#00D995"/>
<stop offset="1" stop-color="#00D995" stop-opacity="0"/>
</radialGradient>
<radialGradient id="paint77_radial_1_1193" cx="0" cy="0" r="1" gradientUnits="userSpaceOnUse" gradientTransform="translate(476.5 160.692) rotate(131.121) scale(83.6301 119.209)">
<stop stop-color="#00D995"/>
<stop offset="1" stop-color="#00D995" stop-opacity="0"/>
</radialGradient>
<radialGradient id="paint78_radial_1_1193" cx="0" cy="0" r="1" gradientUnits="userSpaceOnUse" gradientTransform="translate(476.5 160.692) rotate(131.121) scale(83.63 119.209)">
<stop stop-color="#00D995"/>
<stop offset="1" stop-color="#00D995" stop-opacity="0"/>
</radialGradient>
<radialGradient id="paint79_radial_1_1193" cx="0" cy="0" r="1" gradientUnits="userSpaceOnUse" gradientTransform="translate(476.5 160.692) rotate(131.121) scale(83.6301 119.209)">
<stop stop-color="#00D995"/>
<stop offset="1" stop-color="#00D995" stop-opacity="0"/>
</radialGradient>
<radialGradient id="paint80_radial_1_1193" cx="0" cy="0" r="1" gradientUnits="userSpaceOnUse" gradientTransform="translate(476.5 160.692) rotate(131.121) scale(83.6302 119.209)">
<stop stop-color="#00D995"/>
<stop offset="1" stop-color="#00D995" stop-opacity="0"/>
</radialGradient>
<radialGradient id="paint81_radial_1_1193" cx="0" cy="0" r="1" gradientUnits="userSpaceOnUse" gradientTransform="translate(521 49.499) rotate(146.198) scale(71.0019 79.522)">
<stop stop-color="#00D995"/>
<stop offset="1" stop-color="#00D995" stop-opacity="0"/>
</radialGradient>
<radialGradient id="paint82_radial_1_1193" cx="0" cy="0" r="1" gradientUnits="userSpaceOnUse" gradientTransform="translate(436.027 76.9962) rotate(-21.987) scale(38.1158 42.6897)">
<stop stop-color="#00D995" stop-opacity="0.32"/>
<stop offset="1" stop-color="#00D995" stop-opacity="0"/>
</radialGradient>
<radialGradient id="paint83_radial_1_1193" cx="0" cy="0" r="1" gradientUnits="userSpaceOnUse" gradientTransform="translate(512.494 134.994) rotate(88.011) scale(72.0434 80.6887)">
<stop stop-color="#00D995" stop-opacity="0.32"/>
<stop offset="1" stop-opacity="0"/>
</radialGradient>
<radialGradient id="paint84_radial_1_1193" cx="0" cy="0" r="1" gradientUnits="userSpaceOnUse" gradientTransform="translate(457.5 200) rotate(-38.8563) scale(44.9805 50.3782)">
<stop stop-color="#00D995" stop-opacity="0.32"/>
<stop offset="1" stop-color="#00D995" stop-opacity="0"/>
</radialGradient>
<radialGradient id="paint85_radial_1_1193" cx="0" cy="0" r="1" gradientUnits="userSpaceOnUse" gradientTransform="translate(522.68 182.788) rotate(-56.3422) scale(62.8193 70.3575)">
<stop stop-color="#29405C" stop-opacity="0"/>
<stop offset="1" stop-color="#00D995" stop-opacity="0.32"/>
</radialGradient>
<radialGradient id="paint86_radial_1_1193" cx="0" cy="0" r="1" gradientUnits="userSpaceOnUse" gradientTransform="translate(501.519 199.996) rotate(-41.358) scale(44.2092 49.5145)">
<stop stop-color="#00D995" stop-opacity="0.32"/>
<stop offset="1" stop-color="#00D995" stop-opacity="0"/>
</radialGradient>
<radialGradient id="paint87_radial_1_1193" cx="0" cy="0" r="1" gradientUnits="userSpaceOnUse" gradientTransform="translate(552 190.999) rotate(127.875) scale(62.7096 70.2347)">
<stop stop-color="#00D995" stop-opacity="0.32"/>
<stop offset="1" stop-opacity="0"/>
</radialGradient>
<radialGradient id="paint88_radial_1_1193" cx="0" cy="0" r="1" gradientUnits="userSpaceOnUse" gradientTransform="translate(485.997 237.001) rotate(-45.9591) scale(40.7048 45.5894)">
<stop stop-color="#00D995" stop-opacity="0.32"/>
<stop offset="1" stop-color="#00D995" stop-opacity="0"/>
</radialGradient>
<clipPath id="clip0_1_1193">
<rect width="2560" height="960" fill="white" transform="translate(-672)"/>
</clipPath>
</defs>
</svg>
