<svg width="176" height="32" viewBox="0 0 176 32" fill="none" xmlns="http://www.w3.org/2000/svg">
<path d="M0 8.53327L25.5998 0V14.9332L0 23.4665V8.53327Z" fill="#00D995"/>
<path d="M6.40005 24.5508V32.0001L31.9999 23.4668V8.53357L29.3326 9.42266V16.9698L6.40005 24.5508Z" fill="#00D995"/>
<path d="M46.3364 25V7.54545H52.4386C53.6545 7.54545 54.6574 7.75568 55.4471 8.17614C56.2369 8.59091 56.825 9.15057 57.2114 9.85511C57.5977 10.554 57.7909 11.3295 57.7909 12.1818C57.7909 12.9318 57.6574 13.5511 57.3903 14.0398C57.129 14.5284 56.7824 14.9148 56.3506 15.1989C55.9244 15.483 55.4614 15.6932 54.9614 15.8295V16C55.4954 16.0341 56.0324 16.2216 56.5721 16.5625C57.1119 16.9034 57.5636 17.392 57.9273 18.0284C58.2909 18.6648 58.4727 19.4432 58.4727 20.3636C58.4727 21.2386 58.2739 22.0256 57.8761 22.7244C57.4784 23.4233 56.8506 23.9773 55.9926 24.3864C55.1346 24.7955 54.0182 25 52.6432 25H46.3364ZM48.45 23.125H52.6432C54.0239 23.125 55.004 22.858 55.5835 22.3239C56.1687 21.7841 56.4614 21.1307 56.4614 20.3636C56.4614 19.7727 56.3108 19.2273 56.0096 18.7273C55.7085 18.2216 55.2795 17.8182 54.7227 17.517C54.1659 17.2102 53.5068 17.0568 52.7454 17.0568H48.45V23.125ZM48.45 15.2159H52.3704C53.0068 15.2159 53.5807 15.0909 54.092 14.8409C54.6091 14.5909 55.0182 14.2386 55.3193 13.7841C55.6261 13.3295 55.7795 12.7955 55.7795 12.1818C55.7795 11.4148 55.5125 10.7642 54.9784 10.2301C54.4443 9.69034 53.5977 9.42045 52.4386 9.42045H48.45V15.2159ZM61.673 25V11.9091H63.6162V13.8864H63.7525C63.9912 13.2386 64.423 12.7131 65.048 12.3097C65.673 11.9062 66.3775 11.7045 67.1616 11.7045C67.3094 11.7045 67.494 11.7074 67.7156 11.7131C67.9372 11.7187 68.1048 11.7273 68.2185 11.7386V13.7841C68.1503 13.767 67.994 13.7415 67.7497 13.7074C67.5111 13.6676 67.2582 13.6477 66.9912 13.6477C66.3548 13.6477 65.7866 13.7812 65.2866 14.0483C64.7923 14.3097 64.4003 14.6733 64.1105 15.1392C63.8264 15.5994 63.6844 16.125 63.6844 16.7159V25H61.673ZM74.455 25.3068C73.6254 25.3068 72.8726 25.1506 72.1964 24.8381C71.5203 24.5199 70.9834 24.0625 70.5856 23.4659C70.1879 22.8636 69.9891 22.1364 69.9891 21.2841C69.9891 20.5341 70.1368 19.9261 70.4322 19.4602C70.7277 18.9886 71.1226 18.6193 71.6169 18.3523C72.1112 18.0852 72.6567 17.8864 73.2533 17.7557C73.8555 17.6193 74.4606 17.5114 75.0686 17.4318C75.8641 17.3295 76.5089 17.2528 77.0033 17.2017C77.5033 17.1449 77.8669 17.0511 78.0942 16.9205C78.3271 16.7898 78.4436 16.5625 78.4436 16.2386V16.1705C78.4436 15.3295 78.2135 14.6761 77.7533 14.2102C77.2987 13.7443 76.6084 13.5114 75.6822 13.5114C74.722 13.5114 73.9692 13.7216 73.4237 14.142C72.8783 14.5625 72.4947 15.0114 72.2731 15.4886L70.3641 14.8068C70.705 14.0114 71.1595 13.392 71.7277 12.9489C72.3016 12.5 72.9266 12.1875 73.6027 12.0114C74.2845 11.8295 74.955 11.7386 75.6141 11.7386C76.0345 11.7386 76.5175 11.7898 77.0629 11.892C77.6141 11.9886 78.1453 12.1903 78.6567 12.4972C79.1737 12.804 79.6027 13.267 79.9436 13.8864C80.2845 14.5057 80.455 15.3352 80.455 16.375V25H78.4436V23.2273H78.3413C78.205 23.5114 77.9777 23.8153 77.6595 24.1392C77.3413 24.4631 76.918 24.7386 76.3896 24.9659C75.8612 25.1932 75.2163 25.3068 74.455 25.3068ZM74.7618 23.5C75.5572 23.5 76.2277 23.3438 76.7731 23.0312C77.3243 22.7188 77.7391 22.3153 78.0175 21.821C78.3016 21.3267 78.4436 20.8068 78.4436 20.2614V18.4205C78.3584 18.5227 78.1709 18.6165 77.8811 18.7017C77.597 18.7812 77.2675 18.8523 76.8925 18.9148C76.5231 18.9716 76.1623 19.0227 75.8101 19.0682C75.4635 19.108 75.1822 19.142 74.9663 19.1705C74.4436 19.2386 73.955 19.3494 73.5004 19.5028C73.0516 19.6506 72.6879 19.875 72.4095 20.1761C72.1368 20.4716 72.0004 20.875 72.0004 21.3864C72.0004 22.0852 72.2589 22.6136 72.776 22.9716C73.2987 23.3239 73.9606 23.5 74.7618 23.5ZM86.1375 17.125V25H84.1261V11.9091H86.0693V13.9545H86.2398C86.5466 13.2898 87.0125 12.7557 87.6375 12.3523C88.2625 11.9432 89.0693 11.7386 90.0579 11.7386C90.9443 11.7386 91.7199 11.9205 92.3846 12.2841C93.0494 12.642 93.5665 13.1875 93.9358 13.9205C94.3051 14.6477 94.4898 15.5682 94.4898 16.6818V25H92.4784V16.8182C92.4784 15.7898 92.2114 14.9886 91.6773 14.4148C91.1432 13.8352 90.4102 13.5455 89.4784 13.5455C88.8364 13.5455 88.2625 13.6847 87.7568 13.9631C87.2568 14.2415 86.8619 14.6477 86.5721 15.1818C86.2824 15.7159 86.1375 16.3636 86.1375 17.125ZM103.108 25.2727C102.017 25.2727 101.054 24.9972 100.219 24.446C99.3839 23.8892 98.7305 23.1051 98.2589 22.0938C97.7873 21.0767 97.5516 19.875 97.5516 18.4886C97.5516 17.1136 97.7873 15.9205 98.2589 14.9091C98.7305 13.8977 99.3868 13.1165 100.228 12.5653C101.069 12.0142 102.04 11.7386 103.142 11.7386C103.995 11.7386 104.668 11.8807 105.162 12.1648C105.662 12.4432 106.043 12.7614 106.304 13.1193C106.571 13.4716 106.779 13.7614 106.927 13.9886H107.097V7.54545H109.108V25H107.165V22.9886H106.927C106.779 23.2273 106.569 23.5284 106.296 23.892C106.023 24.25 105.634 24.571 105.128 24.8551C104.623 25.1335 103.949 25.2727 103.108 25.2727ZM103.381 23.4659C104.188 23.4659 104.87 23.2557 105.427 22.8352C105.983 22.4091 106.407 21.821 106.696 21.071C106.986 20.3153 107.131 19.4432 107.131 18.4545C107.131 17.4773 106.989 16.6222 106.705 15.8892C106.421 15.1506 106 14.5767 105.444 14.1676C104.887 13.7528 104.199 13.5455 103.381 13.5455C102.529 13.5455 101.819 13.7642 101.25 14.2017C100.688 14.6335 100.265 15.2216 99.9805 15.9659C99.7021 16.7045 99.5629 17.5341 99.5629 18.4545C99.5629 19.3864 99.705 20.233 99.9891 20.9943C100.279 21.75 100.705 22.3523 101.267 22.8011C101.836 23.2443 102.54 23.4659 103.381 23.4659ZM119.702 25V7.54545H122.864V22.3494H130.552V25H119.702ZM138.87 25.2557C137.591 25.2557 136.483 24.9744 135.546 24.4119C134.608 23.8494 133.881 23.0625 133.364 22.0511C132.853 21.0398 132.597 19.858 132.597 18.5057C132.597 17.1534 132.853 15.9687 133.364 14.9517C133.881 13.9347 134.608 13.1449 135.546 12.5824C136.483 12.0199 137.591 11.7386 138.87 11.7386C140.148 11.7386 141.256 12.0199 142.194 12.5824C143.131 13.1449 143.856 13.9347 144.367 14.9517C144.884 15.9687 145.142 17.1534 145.142 18.5057C145.142 19.858 144.884 21.0398 144.367 22.0511C143.856 23.0625 143.131 23.8494 142.194 24.4119C141.256 24.9744 140.148 25.2557 138.87 25.2557ZM138.887 22.7841C139.58 22.7841 140.16 22.5937 140.625 22.2131C141.091 21.8267 141.438 21.3097 141.665 20.6619C141.898 20.0142 142.015 19.2926 142.015 18.4972C142.015 17.696 141.898 16.9716 141.665 16.3239C141.438 15.6705 141.091 15.1506 140.625 14.7642C140.16 14.3778 139.58 14.1847 138.887 14.1847C138.177 14.1847 137.586 14.3778 137.114 14.7642C136.648 15.1506 136.299 15.6705 136.066 16.3239C135.838 16.9716 135.725 17.696 135.725 18.4972C135.725 19.2926 135.838 20.0142 136.066 20.6619C136.299 21.3097 136.648 21.8267 137.114 22.2131C137.586 22.5937 138.177 22.7841 138.887 22.7841ZM153.454 30.1818C152.346 30.1818 151.395 30.0313 150.599 29.7301C149.804 29.4347 149.164 29.0369 148.682 28.5369C148.199 28.0369 147.863 27.483 147.676 26.875L150.454 26.2017C150.579 26.4574 150.761 26.7102 151 26.9602C151.238 27.2159 151.559 27.4261 151.963 27.5909C152.372 27.7614 152.886 27.8466 153.505 27.8466C154.38 27.8466 155.105 27.6335 155.679 27.2074C156.253 26.7869 156.539 26.0938 156.539 25.1278V22.6477H156.386C156.227 22.9659 155.994 23.2926 155.687 23.6278C155.386 23.9631 154.986 24.2443 154.486 24.4716C153.991 24.6989 153.369 24.8125 152.619 24.8125C151.613 24.8125 150.701 24.5767 149.883 24.1051C149.071 23.6278 148.423 22.9176 147.94 21.9744C147.463 21.0256 147.224 19.8381 147.224 18.4119C147.224 16.9744 147.463 15.7614 147.94 14.7727C148.423 13.7784 149.074 13.0256 149.892 12.5142C150.71 11.9972 151.622 11.7386 152.628 11.7386C153.395 11.7386 154.025 11.8693 154.52 12.1307C155.02 12.3864 155.417 12.696 155.713 13.0597C156.008 13.4176 156.233 13.7557 156.386 14.0739H156.557V11.9091H159.599V25.2131C159.599 26.3324 159.332 27.2585 158.798 27.9915C158.264 28.7244 157.534 29.2727 156.608 29.6364C155.682 30 154.63 30.1818 153.454 30.1818ZM153.48 22.392C154.133 22.392 154.69 22.233 155.15 21.9148C155.611 21.5966 155.96 21.1392 156.199 20.5426C156.437 19.946 156.557 19.2301 156.557 18.3949C156.557 17.571 156.437 16.8494 156.199 16.2301C155.966 15.6108 155.619 15.1307 155.159 14.7898C154.704 14.4432 154.145 14.2699 153.48 14.2699C152.792 14.2699 152.218 14.4489 151.758 14.8068C151.298 15.1648 150.951 15.6562 150.718 16.2812C150.486 16.9006 150.369 17.6051 150.369 18.3949C150.369 19.196 150.486 19.8977 150.718 20.5C150.957 21.0966 151.307 21.5625 151.767 21.8977C152.233 22.2273 152.804 22.392 153.48 22.392ZM168.471 25.2557C167.193 25.2557 166.085 24.9744 165.147 24.4119C164.21 23.8494 163.483 23.0625 162.966 22.0511C162.454 21.0398 162.199 19.858 162.199 18.5057C162.199 17.1534 162.454 15.9687 162.966 14.9517C163.483 13.9347 164.21 13.1449 165.147 12.5824C166.085 12.0199 167.193 11.7386 168.471 11.7386C169.75 11.7386 170.858 12.0199 171.795 12.5824C172.733 13.1449 173.457 13.9347 173.968 14.9517C174.486 15.9687 174.744 17.1534 174.744 18.5057C174.744 19.858 174.486 21.0398 173.968 22.0511C173.457 23.0625 172.733 23.8494 171.795 24.4119C170.858 24.9744 169.75 25.2557 168.471 25.2557ZM168.488 22.7841C169.182 22.7841 169.761 22.5937 170.227 22.2131C170.693 21.8267 171.039 21.3097 171.267 20.6619C171.5 20.0142 171.616 19.2926 171.616 18.4972C171.616 17.696 171.5 16.9716 171.267 16.3239C171.039 15.6705 170.693 15.1506 170.227 14.7642C169.761 14.3778 169.182 14.1847 168.488 14.1847C167.778 14.1847 167.187 14.3778 166.716 14.7642C166.25 15.1506 165.9 15.6705 165.667 16.3239C165.44 16.9716 165.326 17.696 165.326 18.4972C165.326 19.2926 165.44 20.0142 165.667 20.6619C165.9 21.3097 166.25 21.8267 166.716 22.2131C167.187 22.5937 167.778 22.7841 168.488 22.7841Z" fill="white"/>
</svg>
